<?xml version="1.0" encoding="utf-8" standalone="no"?>
<!DOCTYPE svg PUBLIC "-//W3C//DTD SVG 1.1//EN"
  "http://www.w3.org/Graphics/SVG/1.1/DTD/svg11.dtd">
<svg xmlns:xlink="http://www.w3.org/1999/xlink" width="864pt" height="604.8pt" viewBox="0 0 864 604.8" xmlns="http://www.w3.org/2000/svg" version="1.1">
 <metadata>
  <rdf:RDF xmlns:dc="http://purl.org/dc/elements/1.1/" xmlns:cc="http://creativecommons.org/ns#" xmlns:rdf="http://www.w3.org/1999/02/22-rdf-syntax-ns#">
   <cc:Work>
    <dc:type rdf:resource="http://purl.org/dc/dcmitype/StillImage"/>
    <dc:format>image/svg+xml</dc:format>
    <dc:creator>
     <cc:Agent>
      <dc:title>Matplotlib v3.11.1, https://matplotlib.org/</dc:title>
     </cc:Agent>
    </dc:creator>
   </cc:Work>
  </rdf:RDF>
 </metadata>
 <defs>
  <style type="text/css">*{stroke-linejoin: round; stroke-linecap: butt}</style>
 </defs>
 <g id="figure_1">
  <g id="patch_1">
   <path d="M 0 604.8 
L 864 604.8 
L 864 0 
L 0 0 
z
" style="fill: #ffffff"/>
  </g>
  <g id="axes_1">
   <g id="patch_2">
    <path d="M 67.392 461.4624 
L 637.632 461.4624 
L 637.632 140.9184 
L 67.392 140.9184 
z
" style="fill: #ffffff"/>
   </g>
   <g id="matplotlib.axis_1">
    <g id="xtick_1">
     <g id="line2d_1">
      <path d="M 119.037988 461.4624 
L 119.037988 140.9184 
" clip-path="url(#p13ecabddb9)" style="fill: none; stroke: #d7dbe2; stroke-opacity: 0.6; stroke-width: 0.5; stroke-linecap: square"/>
     </g>
     <g id="line2d_2">
      <defs>
       <path id="ma3a00a99b0" d="M 0 0 
L 0 3.5 
" style="stroke: #6b7280; stroke-width: 0.8"/>
      </defs>
      <g>
       <use xlink:href="#ma3a00a99b0" x="119.037988" y="461.4624" style="fill: #6b7280; stroke: #6b7280; stroke-width: 0.8"/>
      </g>
     </g>
     <g id="text_1">
      <text style="font-size: 10px; font-family: 'DejaVu Sans', 'Arial', 'Helvetica', sans-serif; text-anchor: middle; fill: #6b7280" x="119.037988" y="476.060056" transform="rotate(-0 119.037988 476.060056)">2023</text>
     </g>
    </g>
    <g id="xtick_2">
     <g id="line2d_3">
      <path d="M 274.829605 461.4624 
L 274.829605 140.9184 
" clip-path="url(#p13ecabddb9)" style="fill: none; stroke: #d7dbe2; stroke-opacity: 0.6; stroke-width: 0.5; stroke-linecap: square"/>
     </g>
     <g id="line2d_4">
      <g>
       <use xlink:href="#ma3a00a99b0" x="274.829605" y="461.4624" style="fill: #6b7280; stroke: #6b7280; stroke-width: 0.8"/>
      </g>
     </g>
     <g id="text_2">
      <text style="font-size: 10px; font-family: 'DejaVu Sans', 'Arial', 'Helvetica', sans-serif; text-anchor: middle; fill: #6b7280" x="274.829605" y="476.060056" transform="rotate(-0 274.829605 476.060056)">2024</text>
     </g>
    </g>
    <g id="xtick_3">
     <g id="line2d_5">
      <path d="M 431.048048 461.4624 
L 431.048048 140.9184 
" clip-path="url(#p13ecabddb9)" style="fill: none; stroke: #d7dbe2; stroke-opacity: 0.6; stroke-width: 0.5; stroke-linecap: square"/>
     </g>
     <g id="line2d_6">
      <g>
       <use xlink:href="#ma3a00a99b0" x="431.048048" y="461.4624" style="fill: #6b7280; stroke: #6b7280; stroke-width: 0.8"/>
      </g>
     </g>
     <g id="text_3">
      <text style="font-size: 10px; font-family: 'DejaVu Sans', 'Arial', 'Helvetica', sans-serif; text-anchor: middle; fill: #6b7280" x="431.048048" y="476.060056" transform="rotate(-0 431.048048 476.060056)">2025</text>
     </g>
    </g>
    <g id="xtick_4">
     <g id="line2d_7">
      <path d="M 586.839665 461.4624 
L 586.839665 140.9184 
" clip-path="url(#p13ecabddb9)" style="fill: none; stroke: #d7dbe2; stroke-opacity: 0.6; stroke-width: 0.5; stroke-linecap: square"/>
     </g>
     <g id="line2d_8">
      <g>
       <use xlink:href="#ma3a00a99b0" x="586.839665" y="461.4624" style="fill: #6b7280; stroke: #6b7280; stroke-width: 0.8"/>
      </g>
     </g>
     <g id="text_4">
      <text style="font-size: 10px; font-family: 'DejaVu Sans', 'Arial', 'Helvetica', sans-serif; text-anchor: middle; fill: #6b7280" x="586.839665" y="476.060056" transform="rotate(-0 586.839665 476.060056)">2026</text>
     </g>
    </g>
    <g id="text_5">
     <text style="font-size: 10px; font-family: 'DejaVu Sans', 'Arial', 'Helvetica', sans-serif; text-anchor: middle; fill: #1a1a1a" x="352.512" y="490.060838" transform="rotate(-0 352.512 490.060838)">Date of report</text>
    </g>
   </g>
   <g id="matplotlib.axis_2">
    <g id="ytick_1">
     <g id="line2d_9">
      <path d="M 67.392 398.307776 
L 637.632 398.307776 
" clip-path="url(#p13ecabddb9)" style="fill: none; stroke: #d7dbe2; stroke-opacity: 0.9; stroke-width: 0.7; stroke-linecap: square"/>
     </g>
     <g id="line2d_10">
      <defs>
       <path id="mdfe75e7a28" d="M 0 0 
L -3.5 0 
" style="stroke: #6b7280; stroke-width: 0.8"/>
      </defs>
      <g>
       <use xlink:href="#mdfe75e7a28" x="67.392" y="398.307776" style="fill: #6b7280; stroke: #6b7280; stroke-width: 0.8"/>
      </g>
     </g>
     <g id="text_6">
      <text style="font-size: 10px; font-family: 'DejaVu Sans', 'Arial', 'Helvetica', sans-serif; text-anchor: end; fill: #6b7280" x="60.392" y="402.106995" transform="rotate(-0 60.392 402.106995)">$500M</text>
     </g>
    </g>
    <g id="ytick_2">
     <g id="line2d_11">
      <path d="M 67.392 338.398444 
L 637.632 338.398444 
" clip-path="url(#p13ecabddb9)" style="fill: none; stroke: #d7dbe2; stroke-opacity: 0.9; stroke-width: 0.7; stroke-linecap: square"/>
     </g>
     <g id="line2d_12">
      <g>
       <use xlink:href="#mdfe75e7a28" x="67.392" y="338.398444" style="fill: #6b7280; stroke: #6b7280; stroke-width: 0.8"/>
      </g>
     </g>
     <g id="text_7">
      <text style="font-size: 10px; font-family: 'DejaVu Sans', 'Arial', 'Helvetica', sans-serif; text-anchor: end; fill: #6b7280" x="60.392" y="342.197662" transform="rotate(-0 60.392 342.197662)">$1B</text>
     </g>
    </g>
    <g id="ytick_3">
     <g id="line2d_13">
      <path d="M 67.392 278.489111 
L 637.632 278.489111 
" clip-path="url(#p13ecabddb9)" style="fill: none; stroke: #d7dbe2; stroke-opacity: 0.9; stroke-width: 0.7; stroke-linecap: square"/>
     </g>
     <g id="line2d_14">
      <g>
       <use xlink:href="#mdfe75e7a28" x="67.392" y="278.489111" style="fill: #6b7280; stroke: #6b7280; stroke-width: 0.8"/>
      </g>
     </g>
     <g id="text_8">
      <text style="font-size: 10px; font-family: 'DejaVu Sans', 'Arial', 'Helvetica', sans-serif; text-anchor: end; fill: #6b7280" x="60.392" y="282.28833" transform="rotate(-0 60.392 282.28833)">$2B</text>
     </g>
    </g>
    <g id="ytick_4">
     <g id="line2d_15">
      <path d="M 67.392 199.293282 
L 637.632 199.293282 
" clip-path="url(#p13ecabddb9)" style="fill: none; stroke: #d7dbe2; stroke-opacity: 0.9; stroke-width: 0.7; stroke-linecap: square"/>
     </g>
     <g id="line2d_16">
      <g>
       <use xlink:href="#mdfe75e7a28" x="67.392" y="199.293282" style="fill: #6b7280; stroke: #6b7280; stroke-width: 0.8"/>
      </g>
     </g>
     <g id="text_9">
      <text style="font-size: 10px; font-family: 'DejaVu Sans', 'Arial', 'Helvetica', sans-serif; text-anchor: end; fill: #6b7280" x="60.392" y="203.0925" transform="rotate(-0 60.392 203.0925)">$5B</text>
     </g>
    </g>
    <g id="text_10">
     <text style="font-size: 10px; font-family: 'DejaVu Sans', 'Arial', 'Helvetica', sans-serif; text-anchor: middle; fill: #1a1a1a" x="19.911531" y="301.1904" transform="rotate(-90 19.911531 301.1904)">Compute spend (USD)</text>
    </g>
   </g>
   <g id="PathCollection_1"/>
   <g id="PathCollection_2"/>
   <g id="patch_3">
    <path d="M 67.392 461.4624 
L 67.392 140.9184 
" style="fill: none; stroke: #d7dbe2; stroke-width: 0.8; stroke-linejoin: miter; stroke-linecap: square"/>
   </g>
   <g id="patch_4">
    <path d="M 67.392 461.4624 
L 637.632 461.4624 
" style="fill: none; stroke: #d7dbe2; stroke-width: 0.8; stroke-linejoin: miter; stroke-linecap: square"/>
   </g>
   <g id="text_11">
    <text style="font-size: 8.3px; font-family: 'DejaVu Sans', 'Arial', 'Helvetica', sans-serif; fill: #6b7280" transform="translate(646.1856 295.168157)">Setting:  Cloud compute spend</text>
    <text style="font-size: 8.3px; font-family: 'DejaVu Sans', 'Arial', 'Helvetica', sans-serif; fill: #6b7280" transform="translate(646.1856 308.033157)">Scale:  logarithmic</text>
    <text style="font-size: 8.3px; font-family: 'DejaVu Sans', 'Arial', 'Helvetica', sans-serif; fill: #6b7280" transform="translate(646.1856 321.70222)">Trend:  off</text>
    <text style="font-size: 8.3px; font-family: 'DejaVu Sans', 'Arial', 'Helvetica', sans-serif; fill: #6b7280" transform="translate(646.1856 333.763157)">Projection:  off</text>
   </g>
   <g id="PathCollection_3">
    <defs>
     <path id="macca2517c5" d="M 0 3.605551 
C 0.956203 3.605551 1.873372 3.225648 2.54951 2.54951 
C 3.225648 1.873372 3.605551 0.956203 3.605551 0 
C 3.605551 -0.956203 3.225648 -1.873372 2.54951 -2.54951 
C 1.873372 -3.225648 0.956203 -3.605551 0 -3.605551 
C -0.956203 -3.605551 -1.873372 -3.225648 -2.54951 -2.54951 
C -3.225648 -1.873372 -3.605551 -0.956203 -3.605551 0 
C -3.605551 0.956203 -3.225648 1.873372 -2.54951 2.54951 
C -1.873372 3.225648 -0.956203 3.605551 0 3.605551 
z
" style="stroke: #ffffff; stroke-width: 0.8"/>
    </defs>
    <g clip-path="url(#p13ecabddb9)">
     <use xlink:href="#macca2517c5" x="430.621222" y="287.595515" style="fill: #1f3864; stroke: #ffffff; stroke-width: 0.8"/>
     <use xlink:href="#macca2517c5" x="586.412838" y="158.670447" style="fill: #1f3864; stroke: #ffffff; stroke-width: 0.8"/>
    </g>
   </g>
   <g id="PathCollection_4">
    <defs>
     <path id="mdda14e9084" d="M -3.605551 3.605551 
L 3.605551 3.605551 
L 3.605551 -3.605551 
L -3.605551 -3.605551 
z
" style="stroke: #ffffff; stroke-width: 0.8"/>
    </defs>
    <g clip-path="url(#p13ecabddb9)">
     <use xlink:href="#mdda14e9084" x="118.611162" y="414.204392" style="fill: #1f3864; stroke: #ffffff; stroke-width: 0.8"/>
    </g>
   </g>
   <g id="PathCollection_5">
    <defs>
     <path id="m6bd05fc741" d="M 0 -3.605551 
L -3.605551 3.605551 
L 3.605551 3.605551 
z
" style="stroke: #ffffff; stroke-width: 0.8"/>
    </defs>
    <g clip-path="url(#p13ecabddb9)">
     <use xlink:href="#m6bd05fc741" x="430.621222" y="218.579779" style="fill: #1f3864; stroke: #ffffff; stroke-width: 0.8"/>
     <use xlink:href="#m6bd05fc741" x="586.412838" y="155.488582" style="fill: #1f3864; stroke: #ffffff; stroke-width: 0.8"/>
    </g>
   </g>
   <g id="PathCollection_6">
    <defs>
     <path id="m1751ea7355" d="M -3.605551 3.605551 
L 3.605551 3.605551 
L 3.605551 -3.605551 
L -3.605551 -3.605551 
z
" style="stroke: #ffffff; stroke-width: 0.8"/>
    </defs>
    <g clip-path="url(#p13ecabddb9)">
     <use xlink:href="#m1751ea7355" x="274.402778" y="446.892218" style="fill: #b4763a; stroke: #ffffff; stroke-width: 0.8"/>
     <use xlink:href="#m1751ea7355" x="430.621222" y="259.202614" style="fill: #b4763a; stroke: #ffffff; stroke-width: 0.8"/>
     <use xlink:href="#m1751ea7355" x="586.412838" y="252.550802" style="fill: #b4763a; stroke: #ffffff; stroke-width: 0.8"/>
    </g>
   </g>
   <g id="PathCollection_7">
    <defs>
     <path id="m59a0246416" d="M 0 -3.605551 
L -3.605551 3.605551 
L 3.605551 3.605551 
z
" style="stroke: #ffffff; stroke-width: 0.8"/>
    </defs>
    <g clip-path="url(#p13ecabddb9)">
     <use xlink:href="#m59a0246416" x="430.621222" y="303.353731" style="fill: #b4763a; stroke: #ffffff; stroke-width: 0.8"/>
     <use xlink:href="#m59a0246416" x="586.412838" y="216.445574" style="fill: #b4763a; stroke: #ffffff; stroke-width: 0.8"/>
    </g>
   </g>
   <g id="legend_1">
    <g id="text_12">
     <text style="font-size: 9.2px; font-family: 'DejaVu Sans', 'Arial', 'Helvetica', sans-serif; text-anchor: start; fill: #1a1a1a" x="676.190319" y="151.508963" transform="rotate(-0 676.190319 151.508963)">Company</text>
    </g>
    <g id="PathCollection_8">
     <defs>
      <path id="m32c611953b" d="M 0 3.391165 
C 0.899347 3.391165 1.761981 3.03385 2.397916 2.397916 
C 3.03385 1.761981 3.391165 0.899347 3.391165 0 
C 3.391165 -0.899347 3.03385 -1.761981 2.397916 -2.397916 
C 1.761981 -3.03385 0.899347 -3.391165 0 -3.391165 
C -0.899347 -3.391165 -1.761981 -3.03385 -2.397916 -2.397916 
C -3.03385 -1.761981 -3.391165 -0.899347 -3.391165 0 
C -3.391165 0.899347 -3.03385 1.761981 -2.397916 2.397916 
C -1.761981 3.03385 -0.899347 3.391165 0 3.391165 
z
" style="stroke: #ffffff; stroke-width: 0.8"/>
     </defs>
     <g>
      <use xlink:href="#m32c611953b" x="656.9856" y="162.695213" style="fill: #1f3864; stroke: #ffffff; stroke-width: 0.8"/>
     </g>
    </g>
    <g id="text_13">
     <text style="font-size: 9px; font-family: 'DejaVu Sans', 'Arial', 'Helvetica', sans-serif; text-anchor: start; fill: #1a1a1a" x="671.3856" y="165.057713" transform="rotate(-0 671.3856 165.057713)">OpenAI  (n=5)</text>
    </g>
    <g id="PathCollection_9">
     <defs>
      <path id="mc036a66632" d="M 0 3.391165 
C 0.899347 3.391165 1.761981 3.03385 2.397916 2.397916 
C 3.03385 1.761981 3.391165 0.899347 3.391165 0 
C 3.391165 -0.899347 3.03385 -1.761981 2.397916 -2.397916 
C 1.761981 -3.03385 0.899347 -3.391165 0 -3.391165 
C -0.899347 -3.391165 -1.761981 -3.03385 -2.397916 -2.397916 
C -3.03385 -1.761981 -3.391165 -0.899347 -3.391165 0 
C -3.391165 0.899347 -3.03385 1.761981 -2.397916 2.397916 
C -1.761981 3.03385 -0.899347 3.391165 0 3.391165 
z
" style="stroke: #ffffff; stroke-width: 0.8"/>
     </defs>
     <g>
      <use xlink:href="#mc036a66632" x="656.9856" y="176.195916" style="fill: #b4763a; stroke: #ffffff; stroke-width: 0.8"/>
     </g>
    </g>
    <g id="text_14">
     <text style="font-size: 9px; font-family: 'DejaVu Sans', 'Arial', 'Helvetica', sans-serif; text-anchor: start; fill: #1a1a1a" x="671.3856" y="178.558416" transform="rotate(-0 671.3856 178.558416)">Anthropic  (n=5)</text>
    </g>
   </g>
   <g id="legend_2">
    <g id="text_15">
     <text style="font-size: 9.2px; font-family: 'DejaVu Sans', 'Arial', 'Helvetica', sans-serif; text-anchor: start; fill: #1a1a1a" x="663.888678" y="211.130146" transform="rotate(-0 663.888678 211.130146)">Spend category</text>
    </g>
    <g id="line2d_17">
     <defs>
      <path id="md9a5a493a9" d="M 0 -3.5 
L -3.5 3.5 
L 3.5 3.5 
z
" style="stroke: #6b7280; stroke-linejoin: miter"/>
     </defs>
     <g>
      <use xlink:href="#md9a5a493a9" x="658.7856" y="221.528896" style="fill: #6b7280; stroke: #6b7280; stroke-linejoin: miter"/>
     </g>
    </g>
    <g id="text_16">
     <text style="font-size: 9px; font-family: 'DejaVu Sans', 'Arial', 'Helvetica', sans-serif; text-anchor: start; fill: #1a1a1a" x="674.9856" y="224.678896" transform="rotate(-0 674.9856 224.678896)">R&amp;D only</text>
    </g>
    <g id="line2d_18">
     <defs>
      <path id="m90dfa7568b" d="M 0 3.5 
C 0.928211 3.5 1.81853 3.131218 2.474874 2.474874 
C 3.131218 1.81853 3.5 0.928211 3.5 0 
C 3.5 -0.928211 3.131218 -1.81853 2.474874 -2.474874 
C 1.81853 -3.131218 0.928211 -3.5 0 -3.5 
C -0.928211 -3.5 -1.81853 -3.131218 -2.474874 -2.474874 
C -3.131218 -1.81853 -3.5 -0.928211 -3.5 0 
C -3.5 0.928211 -3.131218 1.81853 -2.474874 2.474874 
C -1.81853 3.131218 -0.928211 3.5 0 3.5 
z
" style="stroke: #6b7280"/>
     </defs>
     <g>
      <use xlink:href="#m90dfa7568b" x="658.7856" y="235.0296" style="fill: #6b7280; stroke: #6b7280"/>
     </g>
    </g>
    <g id="text_17">
     <text style="font-size: 9px; font-family: 'DejaVu Sans', 'Arial', 'Helvetica', sans-serif; text-anchor: start; fill: #1a1a1a" x="674.9856" y="238.1796" transform="rotate(-0 674.9856 238.1796)">Inference only</text>
    </g>
    <g id="line2d_19">
     <defs>
      <path id="md4f77a82bc" d="M -3.5 3.5 
L 3.5 3.5 
L 3.5 -3.5 
L -3.5 -3.5 
z
" style="stroke: #6b7280; stroke-linejoin: miter"/>
     </defs>
     <g>
      <use xlink:href="#md4f77a82bc" x="658.7856" y="248.530303" style="fill: #6b7280; stroke: #6b7280; stroke-linejoin: miter"/>
     </g>
    </g>
    <g id="text_18">
     <text style="font-size: 9px; font-family: 'DejaVu Sans', 'Arial', 'Helvetica', sans-serif; text-anchor: start; fill: #1a1a1a" x="674.9856" y="251.680303" transform="rotate(-0 674.9856 251.680303)">R&amp;D + inference</text>
    </g>
   </g>
   <g id="text_19">
    <g id="patch_5">
     <path d="M 77.08608 168.265591 
L 327.196736 168.265591 
Q 331.018736 168.265591 331.018736 164.443591 
L 331.018736 155.34288 
Q 331.018736 151.52088 327.196736 151.52088 
L 77.08608 151.52088 
Q 73.26408 151.52088 73.26408 155.34288 
L 73.26408 164.443591 
Q 73.26408 168.265591 77.08608 168.265591 
z
" style="fill: #1f3864"/>
    </g>
    <text style="font-weight: 700; font-size: 9.1px; font-family: 'DejaVu Sans', 'Arial', 'Helvetica', sans-serif; text-anchor: start; fill: #ffffff" x="77.08608" y="162.257458" transform="rotate(-0 77.08608 162.257458)">  OBSERVED DATA ONLY  ·  projections excluded  </text>
   </g>
  </g>
  <g id="line2d_20">
   <path d="M 30.24 494.7264 
L 833.76 494.7264 
" style="fill: none; stroke: #d7dbe2; stroke-width: 0.8; stroke-linecap: square"/>
  </g>
  <g id="text_20">
   <text style="font-weight: 700; font-size: 10.5px; font-family: 'DejaVu Sans Mono', 'Bitstream Vera Sans Mono', 'Computer Modern Typewriter', 'Andale Mono', 'Nimbus Mono L', 'Courier New', 'Courier', 'Fixed', 'Terminal', monospace; text-anchor: start; fill: #1f3864" x="30.24" y="24.911939" transform="rotate(-0 30.24 24.911939)">COMPANIES-10</text>
  </g>
  <g id="text_21">
   <text style="font-weight: 700; font-size: 15.5px; font-family: 'DejaVu Sans', 'Arial', 'Helvetica', sans-serif; text-anchor: start; fill: #1a1a1a" x="30.24" y="55.323178" transform="rotate(-0 30.24 55.323178)">Cloud compute spend of AI companies</text>
  </g>
  <g id="text_22">
   <text style="font-size: 10.2px; font-family: 'DejaVu Sans', 'Arial', 'Helvetica', sans-serif; text-anchor: start; fill: #6b7280" x="30.24" y="79.116806" transform="rotate(-0 30.24 79.116806)">What it shows: cloud compute spend for every AI company where Epoch records it, plotted at the date of the report. 10</text>
  </g>
  <g id="text_23">
   <text style="font-size: 10.2px; font-family: 'DejaVu Sans', 'Arial', 'Helvetica', sans-serif; text-anchor: start; fill: #6b7280" x="30.24" y="97.260806" transform="rotate(-0 30.24 97.260806)">observations across 2 companies. Cloud compute spend for the period, split by Epoch into R&amp;D and inference. A row may</text>
  </g>
  <g id="text_24">
   <text style="font-size: 10.2px; font-family: 'DejaVu Sans', 'Arial', 'Helvetica', sans-serif; text-anchor: start; fill: #6b7280" x="30.24" y="115.404806" transform="rotate(-0 30.24 115.404806)">cover one category or both.</text>
  </g>
  <g id="text_25">
   <text style="font-size: 8.6px; font-family: 'DejaVu Sans', 'Arial', 'Helvetica', sans-serif; text-anchor: start; fill: #6b7280" x="30.24" y="514.566656" transform="rotate(-0 30.24 514.566656)">Source: Epoch AI, AI Companies (CC-BY) — ai_companies_compute_spend.csv — epoch.ai/data/ai-companies</text>
  </g>
  <g id="text_26">
   <text style="font-size: 8.6px; font-family: 'DejaVu Sans', 'Arial', 'Helvetica', sans-serif; text-anchor: start; fill: #6b7280" x="30.24" y="530.291456" transform="rotate(-0 30.24 530.291456)">Methodology: Methodology reference pending final methodology document; derivation follows Epoch AI's published AI companies documentation</text>
  </g>
  <g id="text_27">
   <text style="font-style: italic; font-size: 8.4px; font-family: 'DejaVu Sans', 'Arial', 'Helvetica', sans-serif; text-anchor: start; fill: #6b7280" x="30.24" y="545.864288" transform="rotate(-0 30.24 545.864288)">Note: The vertical axis is log-scaled because the values span several orders of magnitude; on a linear axis every company but the largest</text>
  </g>
  <g id="text_28">
   <text style="font-style: italic; font-size: 8.4px; font-family: 'DejaVu Sans', 'Arial', 'Helvetica', sans-serif; text-anchor: start; fill: #6b7280" x="30.24" y="560.379488" transform="rotate(-0 30.24 560.379488)">      collapses onto the floor. 4 rows Epoch flagged 'exclude from graph view' are dropped, as they are on Epoch's own figure. A company is</text>
  </g>
  <g id="text_29">
   <text style="font-style: italic; font-size: 8.4px; font-family: 'DejaVu Sans', 'Arial', 'Helvetica', sans-serif; text-anchor: start; fill: #6b7280" x="30.24" y="574.894688" transform="rotate(-0 30.24 574.894688)">      absent from a chart wherever Epoch records no value - never imputed, back-filled or carried across.</text>
  </g>
 </g>
 <defs>
  <clipPath id="p13ecabddb9">
   <rect x="67.392" y="140.9184" width="570.24" height="320.544"/>
  </clipPath>
 </defs>
</svg>
