<?xml version="1.0" encoding="utf-8" standalone="no"?>
<!DOCTYPE svg PUBLIC "-//W3C//DTD SVG 1.1//EN"
  "http://www.w3.org/Graphics/SVG/1.1/DTD/svg11.dtd">
<svg xmlns:xlink="http://www.w3.org/1999/xlink" width="864pt" height="604.8pt" viewBox="0 0 864 604.8" xmlns="http://www.w3.org/2000/svg" version="1.1">
 <metadata>
  <rdf:RDF xmlns:dc="http://purl.org/dc/elements/1.1/" xmlns:cc="http://creativecommons.org/ns#" xmlns:rdf="http://www.w3.org/1999/02/22-rdf-syntax-ns#">
   <cc:Work>
    <dc:type rdf:resource="http://purl.org/dc/dcmitype/StillImage"/>
    <dc:format>image/svg+xml</dc:format>
    <dc:creator>
     <cc:Agent>
      <dc:title>Matplotlib v3.11.1, https://matplotlib.org/</dc:title>
     </cc:Agent>
    </dc:creator>
   </cc:Work>
  </rdf:RDF>
 </metadata>
 <defs>
  <style type="text/css">*{stroke-linejoin: round; stroke-linecap: butt}</style>
 </defs>
 <g id="figure_1">
  <g id="patch_1">
   <path d="M 0 604.8 
L 864 604.8 
L 864 0 
L 0 0 
z
" style="fill: #ffffff"/>
  </g>
  <g id="axes_1">
   <g id="patch_2">
    <path d="M 67.392 445.7376 
L 637.632 445.7376 
L 637.632 140.9184 
L 67.392 140.9184 
z
" style="fill: #ffffff"/>
   </g>
   <g id="matplotlib.axis_1">
    <g id="xtick_1">
     <g id="line2d_1">
      <path d="M 166.791633 445.7376 
L 166.791633 140.9184 
" clip-path="url(#pef9e0053fb)" style="fill: none; stroke: #d7dbe2; stroke-opacity: 0.6; stroke-width: 0.5; stroke-linecap: square"/>
     </g>
     <g id="line2d_2">
      <defs>
       <path id="ma3a00a99b0" d="M 0 0 
L 0 3.5 
" style="stroke: #6b7280; stroke-width: 0.8"/>
      </defs>
      <g>
       <use xlink:href="#ma3a00a99b0" x="166.791633" y="445.7376" style="fill: #6b7280; stroke: #6b7280; stroke-width: 0.8"/>
      </g>
     </g>
     <g id="text_1">
      <text style="font-size: 10px; font-family: 'DejaVu Sans', 'Arial', 'Helvetica', sans-serif; text-anchor: middle; fill: #6b7280" x="166.791633" y="460.335256" transform="rotate(-0 166.791633 460.335256)">2023</text>
     </g>
    </g>
    <g id="xtick_2">
     <g id="line2d_3">
      <path d="M 286.136587 445.7376 
L 286.136587 140.9184 
" clip-path="url(#pef9e0053fb)" style="fill: none; stroke: #d7dbe2; stroke-opacity: 0.6; stroke-width: 0.5; stroke-linecap: square"/>
     </g>
     <g id="line2d_4">
      <g>
       <use xlink:href="#ma3a00a99b0" x="286.136587" y="445.7376" style="fill: #6b7280; stroke: #6b7280; stroke-width: 0.8"/>
      </g>
     </g>
     <g id="text_2">
      <text style="font-size: 10px; font-family: 'DejaVu Sans', 'Arial', 'Helvetica', sans-serif; text-anchor: middle; fill: #6b7280" x="286.136587" y="460.335256" transform="rotate(-0 286.136587 460.335256)">2024</text>
     </g>
    </g>
    <g id="xtick_3">
     <g id="line2d_5">
      <path d="M 405.808514 445.7376 
L 405.808514 140.9184 
" clip-path="url(#pef9e0053fb)" style="fill: none; stroke: #d7dbe2; stroke-opacity: 0.6; stroke-width: 0.5; stroke-linecap: square"/>
     </g>
     <g id="line2d_6">
      <g>
       <use xlink:href="#ma3a00a99b0" x="405.808514" y="445.7376" style="fill: #6b7280; stroke: #6b7280; stroke-width: 0.8"/>
      </g>
     </g>
     <g id="text_3">
      <text style="font-size: 10px; font-family: 'DejaVu Sans', 'Arial', 'Helvetica', sans-serif; text-anchor: middle; fill: #6b7280" x="405.808514" y="460.335256" transform="rotate(-0 405.808514 460.335256)">2025</text>
     </g>
    </g>
    <g id="xtick_4">
     <g id="line2d_7">
      <path d="M 525.153468 445.7376 
L 525.153468 140.9184 
" clip-path="url(#pef9e0053fb)" style="fill: none; stroke: #d7dbe2; stroke-opacity: 0.6; stroke-width: 0.5; stroke-linecap: square"/>
     </g>
     <g id="line2d_8">
      <g>
       <use xlink:href="#ma3a00a99b0" x="525.153468" y="445.7376" style="fill: #6b7280; stroke: #6b7280; stroke-width: 0.8"/>
      </g>
     </g>
     <g id="text_4">
      <text style="font-size: 10px; font-family: 'DejaVu Sans', 'Arial', 'Helvetica', sans-serif; text-anchor: middle; fill: #6b7280" x="525.153468" y="460.335256" transform="rotate(-0 525.153468 460.335256)">2026</text>
     </g>
    </g>
    <g id="text_5">
     <text style="font-size: 10px; font-family: 'DejaVu Sans', 'Arial', 'Helvetica', sans-serif; text-anchor: middle; fill: #1a1a1a" x="352.512" y="474.336038" transform="rotate(-0 352.512 474.336038)">Date of report</text>
    </g>
   </g>
   <g id="matplotlib.axis_2">
    <g id="ytick_1">
     <g id="line2d_9">
      <path d="M 67.392 431.91885 
L 637.632 431.91885 
" clip-path="url(#pef9e0053fb)" style="fill: none; stroke: #d7dbe2; stroke-opacity: 0.9; stroke-width: 0.7; stroke-linecap: square"/>
     </g>
     <g id="line2d_10">
      <defs>
       <path id="mdfe75e7a28" d="M 0 0 
L -3.5 0 
" style="stroke: #6b7280; stroke-width: 0.8"/>
      </defs>
      <g>
       <use xlink:href="#mdfe75e7a28" x="67.392" y="431.91885" style="fill: #6b7280; stroke: #6b7280; stroke-width: 0.8"/>
      </g>
     </g>
     <g id="text_6">
      <text style="font-size: 10px; font-family: 'DejaVu Sans', 'Arial', 'Helvetica', sans-serif; text-anchor: end; fill: #6b7280" x="60.392" y="435.717678" transform="rotate(-0 60.392 435.717678)">0</text>
     </g>
    </g>
    <g id="ytick_2">
     <g id="line2d_11">
      <path d="M 67.392 389.281153 
L 637.632 389.281153 
" clip-path="url(#pef9e0053fb)" style="fill: none; stroke: #d7dbe2; stroke-opacity: 0.9; stroke-width: 0.7; stroke-linecap: square"/>
     </g>
     <g id="line2d_12">
      <g>
       <use xlink:href="#mdfe75e7a28" x="67.392" y="389.281153" style="fill: #6b7280; stroke: #6b7280; stroke-width: 0.8"/>
      </g>
     </g>
     <g id="text_7">
      <text style="font-size: 10px; font-family: 'DejaVu Sans', 'Arial', 'Helvetica', sans-serif; text-anchor: end; fill: #6b7280" x="60.392" y="393.080372" transform="rotate(-0 60.392 393.080372)">$10B</text>
     </g>
    </g>
    <g id="ytick_3">
     <g id="line2d_13">
      <path d="M 67.392 346.643456 
L 637.632 346.643456 
" clip-path="url(#pef9e0053fb)" style="fill: none; stroke: #d7dbe2; stroke-opacity: 0.9; stroke-width: 0.7; stroke-linecap: square"/>
     </g>
     <g id="line2d_14">
      <g>
       <use xlink:href="#mdfe75e7a28" x="67.392" y="346.643456" style="fill: #6b7280; stroke: #6b7280; stroke-width: 0.8"/>
      </g>
     </g>
     <g id="text_8">
      <text style="font-size: 10px; font-family: 'DejaVu Sans', 'Arial', 'Helvetica', sans-serif; text-anchor: end; fill: #6b7280" x="60.392" y="350.442675" transform="rotate(-0 60.392 350.442675)">$20B</text>
     </g>
    </g>
    <g id="ytick_4">
     <g id="line2d_15">
      <path d="M 67.392 304.005759 
L 637.632 304.005759 
" clip-path="url(#pef9e0053fb)" style="fill: none; stroke: #d7dbe2; stroke-opacity: 0.9; stroke-width: 0.7; stroke-linecap: square"/>
     </g>
     <g id="line2d_16">
      <g>
       <use xlink:href="#mdfe75e7a28" x="67.392" y="304.005759" style="fill: #6b7280; stroke: #6b7280; stroke-width: 0.8"/>
      </g>
     </g>
     <g id="text_9">
      <text style="font-size: 10px; font-family: 'DejaVu Sans', 'Arial', 'Helvetica', sans-serif; text-anchor: end; fill: #6b7280" x="60.392" y="307.804977" transform="rotate(-0 60.392 307.804977)">$30B</text>
     </g>
    </g>
    <g id="ytick_5">
     <g id="line2d_17">
      <path d="M 67.392 261.368061 
L 637.632 261.368061 
" clip-path="url(#pef9e0053fb)" style="fill: none; stroke: #d7dbe2; stroke-opacity: 0.9; stroke-width: 0.7; stroke-linecap: square"/>
     </g>
     <g id="line2d_18">
      <g>
       <use xlink:href="#mdfe75e7a28" x="67.392" y="261.368061" style="fill: #6b7280; stroke: #6b7280; stroke-width: 0.8"/>
      </g>
     </g>
     <g id="text_10">
      <text style="font-size: 10px; font-family: 'DejaVu Sans', 'Arial', 'Helvetica', sans-serif; text-anchor: end; fill: #6b7280" x="60.392" y="265.16728" transform="rotate(-0 60.392 265.16728)">$40B</text>
     </g>
    </g>
    <g id="ytick_6">
     <g id="line2d_19">
      <path d="M 67.392 218.730364 
L 637.632 218.730364 
" clip-path="url(#pef9e0053fb)" style="fill: none; stroke: #d7dbe2; stroke-opacity: 0.9; stroke-width: 0.7; stroke-linecap: square"/>
     </g>
     <g id="line2d_20">
      <g>
       <use xlink:href="#mdfe75e7a28" x="67.392" y="218.730364" style="fill: #6b7280; stroke: #6b7280; stroke-width: 0.8"/>
      </g>
     </g>
     <g id="text_11">
      <text style="font-size: 10px; font-family: 'DejaVu Sans', 'Arial', 'Helvetica', sans-serif; text-anchor: end; fill: #6b7280" x="60.392" y="222.529583" transform="rotate(-0 60.392 222.529583)">$50B</text>
     </g>
    </g>
    <g id="ytick_7">
     <g id="line2d_21">
      <path d="M 67.392 176.092667 
L 637.632 176.092667 
" clip-path="url(#pef9e0053fb)" style="fill: none; stroke: #d7dbe2; stroke-opacity: 0.9; stroke-width: 0.7; stroke-linecap: square"/>
     </g>
     <g id="line2d_22">
      <g>
       <use xlink:href="#mdfe75e7a28" x="67.392" y="176.092667" style="fill: #6b7280; stroke: #6b7280; stroke-width: 0.8"/>
      </g>
     </g>
     <g id="text_12">
      <text style="font-size: 10px; font-family: 'DejaVu Sans', 'Arial', 'Helvetica', sans-serif; text-anchor: end; fill: #6b7280" x="60.392" y="179.891886" transform="rotate(-0 60.392 179.891886)">$60B</text>
     </g>
    </g>
    <g id="text_13">
     <text style="font-size: 10px; font-family: 'DejaVu Sans', 'Arial', 'Helvetica', sans-serif; text-anchor: middle; fill: #1a1a1a" x="28.041219" y="293.328" transform="rotate(-90 28.041219 293.328)">Annualised revenue (USD)</text>
    </g>
   </g>
   <g id="patch_3">
    <path d="M 67.392 445.7376 
L 67.392 140.9184 
" style="fill: none; stroke: #d7dbe2; stroke-width: 0.8; stroke-linejoin: miter; stroke-linecap: square"/>
   </g>
   <g id="patch_4">
    <path d="M 67.392 445.7376 
L 637.632 445.7376 
" style="fill: none; stroke: #d7dbe2; stroke-width: 0.8; stroke-linejoin: miter; stroke-linecap: square"/>
   </g>
   <g id="line2d_23">
    <path d="M 256.055119 431.492473 
L 286.136587 431.547902 
L 405.481541 427.655081 
L 425.09989 425.949573 
L 434.909064 423.391311 
L 454.527413 419.127541 
L 464.990532 414.863771 
L 474.145761 410.600002 
L 501.61145 402.072462 
L 524.826495 393.544923 
L 538.886312 372.226074 
L 545.098789 350.907225 
L 556.215853 304.005759 
L 568.96778 231.521673 
L 594.144661 154.773818 
" clip-path="url(#pef9e0053fb)" style="fill: none; stroke: #b4763a; stroke-opacity: 0.85; stroke-width: 1.4; stroke-linecap: square"/>
   </g>
   <g id="line2d_24">
    <path d="M 186.083009 431.066096 
L 245.265028 427.655081 
L 258.997872 426.37595 
L 285.482642 425.096819 
L 285.809615 423.391311 
L 339.433101 417.422033 
L 360.359339 416.569279 
L 369.514569 414.863771 
L 405.481541 408.468117 
L 457.797138 389.281153 
L 474.472734 380.753614 
L 475.126679 376.489844 
L 520.575853 350.907225 
L 524.826495 340.674178 
L 544.117872 325.324607 
L 598.395303 261.368061 
" clip-path="url(#pef9e0053fb)" style="fill: none; stroke: #1f3864; stroke-opacity: 0.85; stroke-width: 1.4; stroke-linecap: square"/>
   </g>
   <g id="line2d_25">
    <path d="M 392.07567 431.492473 
L 434.909064 431.185482 
L 464.66356 430.912601 
L 494.745028 430.093957 
" clip-path="url(#pef9e0053fb)" style="fill: none; stroke: #7d5a7d; stroke-opacity: 0.85; stroke-width: 1.4; stroke-linecap: square"/>
   </g>
   <g id="line2d_26">
    <path d="M 458.451083 431.492473 
L 534.962642 430.213342 
" clip-path="url(#pef9e0053fb)" style="fill: none; stroke: #a46b6b; stroke-opacity: 0.85; stroke-width: 1.4; stroke-linecap: square"/>
   </g>
   <g id="line2d_27">
    <path d="M 564.063193 431.066096 
L 584.008514 430.639719 
" clip-path="url(#pef9e0053fb)" style="fill: none; stroke: #5f7a99; stroke-opacity: 0.85; stroke-width: 1.4; stroke-linecap: square"/>
   </g>
   <g id="line2d_28">
    <path d="M 285.809615 431.863421 
L 310.33255 431.825047 
L 423.465028 431.620386 
L 449.622826 431.492473 
L 501.284477 431.279285 
L 524.826495 430.895546 
" clip-path="url(#pef9e0053fb)" style="fill: none; stroke: #8a8f5c; stroke-opacity: 0.85; stroke-width: 1.4; stroke-linecap: square"/>
   </g>
   <g id="line2d_29">
    <path d="M 106.628697 431.882182 
L 225.973651 431.843808 
L 315.891083 431.865979 
L 375.727046 431.758959 
L 435.236037 431.691591 
L 495.072 431.266493 
" clip-path="url(#pef9e0053fb)" style="fill: none; stroke: #9aa9c4; stroke-opacity: 0.85; stroke-width: 1.4; stroke-linecap: square"/>
   </g>
   <g id="text_14">
    <text style="font-size: 8.3px; font-family: 'DejaVu Sans', 'Arial', 'Helvetica', sans-serif; fill: #6b7280" transform="translate(646.1856 325.826679)">Setting:  Annualised revenue</text>
    <text style="font-size: 8.3px; font-family: 'DejaVu Sans', 'Arial', 'Helvetica', sans-serif; fill: #6b7280" transform="translate(646.1856 339.495741)">Scale:  linear</text>
    <text style="font-size: 8.3px; font-family: 'DejaVu Sans', 'Arial', 'Helvetica', sans-serif; fill: #6b7280" transform="translate(646.1856 352.360741)">Trend:  off</text>
    <text style="font-size: 8.3px; font-family: 'DejaVu Sans', 'Arial', 'Helvetica', sans-serif; fill: #6b7280" transform="translate(646.1856 364.421679)">Projection:  off</text>
   </g>
   <g id="PathCollection_1">
    <defs>
     <path id="mc036a66632" d="M 0 3.391165 
C 0.899347 3.391165 1.761981 3.03385 2.397916 2.397916 
C 3.03385 1.761981 3.391165 0.899347 3.391165 0 
C 3.391165 -0.899347 3.03385 -1.761981 2.397916 -2.397916 
C 1.761981 -3.03385 0.899347 -3.391165 0 -3.391165 
C -0.899347 -3.391165 -1.761981 -3.03385 -2.397916 -2.397916 
C -3.03385 -1.761981 -3.391165 -0.899347 -3.391165 0 
C -3.391165 0.899347 -3.03385 1.761981 -2.397916 2.397916 
C -1.761981 3.03385 -0.899347 3.391165 0 3.391165 
z
" style="stroke: #ffffff; stroke-width: 0.8"/>
    </defs>
    <g clip-path="url(#pef9e0053fb)">
     <use xlink:href="#mc036a66632" x="256.055119" y="431.492473" style="fill: #b4763a; stroke: #ffffff; stroke-width: 0.8"/>
     <use xlink:href="#mc036a66632" x="286.136587" y="431.547902" style="fill: #b4763a; stroke: #ffffff; stroke-width: 0.8"/>
     <use xlink:href="#mc036a66632" x="405.481541" y="427.655081" style="fill: #b4763a; stroke: #ffffff; stroke-width: 0.8"/>
     <use xlink:href="#mc036a66632" x="425.09989" y="425.949573" style="fill: #b4763a; stroke: #ffffff; stroke-width: 0.8"/>
     <use xlink:href="#mc036a66632" x="434.909064" y="423.391311" style="fill: #b4763a; stroke: #ffffff; stroke-width: 0.8"/>
     <use xlink:href="#mc036a66632" x="454.527413" y="419.127541" style="fill: #b4763a; stroke: #ffffff; stroke-width: 0.8"/>
     <use xlink:href="#mc036a66632" x="464.990532" y="414.863771" style="fill: #b4763a; stroke: #ffffff; stroke-width: 0.8"/>
     <use xlink:href="#mc036a66632" x="474.145761" y="410.600002" style="fill: #b4763a; stroke: #ffffff; stroke-width: 0.8"/>
     <use xlink:href="#mc036a66632" x="501.61145" y="402.072462" style="fill: #b4763a; stroke: #ffffff; stroke-width: 0.8"/>
     <use xlink:href="#mc036a66632" x="524.826495" y="393.544923" style="fill: #b4763a; stroke: #ffffff; stroke-width: 0.8"/>
     <use xlink:href="#mc036a66632" x="538.886312" y="372.226074" style="fill: #b4763a; stroke: #ffffff; stroke-width: 0.8"/>
     <use xlink:href="#mc036a66632" x="545.098789" y="350.907225" style="fill: #b4763a; stroke: #ffffff; stroke-width: 0.8"/>
     <use xlink:href="#mc036a66632" x="556.215853" y="304.005759" style="fill: #b4763a; stroke: #ffffff; stroke-width: 0.8"/>
     <use xlink:href="#mc036a66632" x="568.96778" y="231.521673" style="fill: #b4763a; stroke: #ffffff; stroke-width: 0.8"/>
     <use xlink:href="#mc036a66632" x="594.144661" y="154.773818" style="fill: #b4763a; stroke: #ffffff; stroke-width: 0.8"/>
    </g>
   </g>
   <g id="PathCollection_2">
    <defs>
     <path id="m32c611953b" d="M 0 3.391165 
C 0.899347 3.391165 1.761981 3.03385 2.397916 2.397916 
C 3.03385 1.761981 3.391165 0.899347 3.391165 0 
C 3.391165 -0.899347 3.03385 -1.761981 2.397916 -2.397916 
C 1.761981 -3.03385 0.899347 -3.391165 0 -3.391165 
C -0.899347 -3.391165 -1.761981 -3.03385 -2.397916 -2.397916 
C -3.03385 -1.761981 -3.391165 -0.899347 -3.391165 0 
C -3.391165 0.899347 -3.03385 1.761981 -2.397916 2.397916 
C -1.761981 3.03385 -0.899347 3.391165 0 3.391165 
z
" style="stroke: #ffffff; stroke-width: 0.8"/>
    </defs>
    <g clip-path="url(#pef9e0053fb)">
     <use xlink:href="#m32c611953b" x="186.083009" y="431.066096" style="fill: #1f3864; stroke: #ffffff; stroke-width: 0.8"/>
     <use xlink:href="#m32c611953b" x="245.265028" y="427.655081" style="fill: #1f3864; stroke: #ffffff; stroke-width: 0.8"/>
     <use xlink:href="#m32c611953b" x="258.997872" y="426.37595" style="fill: #1f3864; stroke: #ffffff; stroke-width: 0.8"/>
     <use xlink:href="#m32c611953b" x="285.482642" y="425.096819" style="fill: #1f3864; stroke: #ffffff; stroke-width: 0.8"/>
     <use xlink:href="#m32c611953b" x="285.809615" y="423.391311" style="fill: #1f3864; stroke: #ffffff; stroke-width: 0.8"/>
     <use xlink:href="#m32c611953b" x="339.433101" y="417.422033" style="fill: #1f3864; stroke: #ffffff; stroke-width: 0.8"/>
     <use xlink:href="#m32c611953b" x="360.359339" y="416.569279" style="fill: #1f3864; stroke: #ffffff; stroke-width: 0.8"/>
     <use xlink:href="#m32c611953b" x="369.514569" y="414.863771" style="fill: #1f3864; stroke: #ffffff; stroke-width: 0.8"/>
     <use xlink:href="#m32c611953b" x="405.481541" y="408.468117" style="fill: #1f3864; stroke: #ffffff; stroke-width: 0.8"/>
     <use xlink:href="#m32c611953b" x="457.797138" y="389.281153" style="fill: #1f3864; stroke: #ffffff; stroke-width: 0.8"/>
     <use xlink:href="#m32c611953b" x="474.472734" y="380.753614" style="fill: #1f3864; stroke: #ffffff; stroke-width: 0.8"/>
     <use xlink:href="#m32c611953b" x="475.126679" y="376.489844" style="fill: #1f3864; stroke: #ffffff; stroke-width: 0.8"/>
     <use xlink:href="#m32c611953b" x="520.575853" y="350.907225" style="fill: #1f3864; stroke: #ffffff; stroke-width: 0.8"/>
     <use xlink:href="#m32c611953b" x="524.826495" y="340.674178" style="fill: #1f3864; stroke: #ffffff; stroke-width: 0.8"/>
     <use xlink:href="#m32c611953b" x="544.117872" y="325.324607" style="fill: #1f3864; stroke: #ffffff; stroke-width: 0.8"/>
     <use xlink:href="#m32c611953b" x="598.395303" y="261.368061" style="fill: #1f3864; stroke: #ffffff; stroke-width: 0.8"/>
    </g>
   </g>
   <g id="PathCollection_3">
    <defs>
     <path id="mfadcb01b82" d="M 0 3.391165 
C 0.899347 3.391165 1.761981 3.03385 2.397916 2.397916 
C 3.03385 1.761981 3.391165 0.899347 3.391165 0 
C 3.391165 -0.899347 3.03385 -1.761981 2.397916 -2.397916 
C 1.761981 -3.03385 0.899347 -3.391165 0 -3.391165 
C -0.899347 -3.391165 -1.761981 -3.03385 -2.397916 -2.397916 
C -3.03385 -1.761981 -3.391165 -0.899347 -3.391165 0 
C -3.391165 0.899347 -3.03385 1.761981 -2.397916 2.397916 
C -1.761981 3.03385 -0.899347 3.391165 0 3.391165 
z
" style="stroke: #ffffff; stroke-width: 0.8"/>
    </defs>
    <g clip-path="url(#pef9e0053fb)">
     <use xlink:href="#mfadcb01b82" x="588.586128" y="430.000154" style="fill: #4e8a8b; stroke: #ffffff; stroke-width: 0.8"/>
    </g>
   </g>
   <g id="PathCollection_4">
    <defs>
     <path id="m328f44c2a2" d="M 0 3.391165 
C 0.899347 3.391165 1.761981 3.03385 2.397916 2.397916 
C 3.03385 1.761981 3.391165 0.899347 3.391165 0 
C 3.391165 -0.899347 3.03385 -1.761981 2.397916 -2.397916 
C 1.761981 -3.03385 0.899347 -3.391165 0 -3.391165 
C -0.899347 -3.391165 -1.761981 -3.03385 -2.397916 -2.397916 
C -3.03385 -1.761981 -3.391165 -0.899347 -3.391165 0 
C -3.391165 0.899347 -3.03385 1.761981 -2.397916 2.397916 
C -1.761981 3.03385 -0.899347 3.391165 0 3.391165 
z
" style="stroke: #ffffff; stroke-width: 0.8"/>
    </defs>
    <g clip-path="url(#pef9e0053fb)">
     <use xlink:href="#m328f44c2a2" x="392.07567" y="431.492473" style="fill: #7d5a7d; stroke: #ffffff; stroke-width: 0.8"/>
    </g>
   </g>
   <g id="PathCollection_5">
    <defs>
     <path id="m3f16a159d4" d="M 0 3.391165 
C 0.899347 3.391165 1.761981 3.03385 2.397916 2.397916 
C 3.03385 1.761981 3.391165 0.899347 3.391165 0 
C 3.391165 -0.899347 3.03385 -1.761981 2.397916 -2.397916 
C 1.761981 -3.03385 0.899347 -3.391165 0 -3.391165 
C -0.899347 -3.391165 -1.761981 -3.03385 -2.397916 -2.397916 
C -3.03385 -1.761981 -3.391165 -0.899347 -3.391165 0 
C -3.391165 0.899347 -3.03385 1.761981 -2.397916 2.397916 
C -1.761981 3.03385 -0.899347 3.391165 0 3.391165 
z
" style="stroke: #7d5a7d; stroke-width: 1.5"/>
    </defs>
    <g clip-path="url(#pef9e0053fb)">
     <use xlink:href="#m3f16a159d4" x="434.909064" y="431.185482" style="fill: #ffffff; stroke: #7d5a7d; stroke-width: 1.5"/>
     <use xlink:href="#m3f16a159d4" x="464.66356" y="430.912601" style="fill: #ffffff; stroke: #7d5a7d; stroke-width: 1.5"/>
     <use xlink:href="#m3f16a159d4" x="494.745028" y="430.093957" style="fill: #ffffff; stroke: #7d5a7d; stroke-width: 1.5"/>
    </g>
   </g>
   <g id="PathCollection_6">
    <defs>
     <path id="m8bcbacb3d3" d="M 0 3.391165 
C 0.899347 3.391165 1.761981 3.03385 2.397916 2.397916 
C 3.03385 1.761981 3.391165 0.899347 3.391165 0 
C 3.391165 -0.899347 3.03385 -1.761981 2.397916 -2.397916 
C 1.761981 -3.03385 0.899347 -3.391165 0 -3.391165 
C -0.899347 -3.391165 -1.761981 -3.03385 -2.397916 -2.397916 
C -3.03385 -1.761981 -3.391165 -0.899347 -3.391165 0 
C -3.391165 0.899347 -3.03385 1.761981 -2.397916 2.397916 
C -1.761981 3.03385 -0.899347 3.391165 0 3.391165 
z
" style="stroke: #ffffff; stroke-width: 0.8"/>
    </defs>
    <g clip-path="url(#pef9e0053fb)">
     <use xlink:href="#m8bcbacb3d3" x="458.451083" y="431.492473" style="fill: #a46b6b; stroke: #ffffff; stroke-width: 0.8"/>
     <use xlink:href="#m8bcbacb3d3" x="534.962642" y="430.213342" style="fill: #a46b6b; stroke: #ffffff; stroke-width: 0.8"/>
    </g>
   </g>
   <g id="PathCollection_7">
    <defs>
     <path id="m9f745c1f9d" d="M 0 3.391165 
C 0.899347 3.391165 1.761981 3.03385 2.397916 2.397916 
C 3.03385 1.761981 3.391165 0.899347 3.391165 0 
C 3.391165 -0.899347 3.03385 -1.761981 2.397916 -2.397916 
C 1.761981 -3.03385 0.899347 -3.391165 0 -3.391165 
C -0.899347 -3.391165 -1.761981 -3.03385 -2.397916 -2.397916 
C -3.03385 -1.761981 -3.391165 -0.899347 -3.391165 0 
C -3.391165 0.899347 -3.03385 1.761981 -2.397916 2.397916 
C -1.761981 3.03385 -0.899347 3.391165 0 3.391165 
z
" style="stroke: #ffffff; stroke-width: 0.8"/>
    </defs>
    <g clip-path="url(#pef9e0053fb)">
     <use xlink:href="#m9f745c1f9d" x="564.063193" y="431.066096" style="fill: #5f7a99; stroke: #ffffff; stroke-width: 0.8"/>
     <use xlink:href="#m9f745c1f9d" x="584.008514" y="430.639719" style="fill: #5f7a99; stroke: #ffffff; stroke-width: 0.8"/>
    </g>
   </g>
   <g id="PathCollection_8">
    <defs>
     <path id="m23bc2085f1" d="M 0 3.391165 
C 0.899347 3.391165 1.761981 3.03385 2.397916 2.397916 
C 3.03385 1.761981 3.391165 0.899347 3.391165 0 
C 3.391165 -0.899347 3.03385 -1.761981 2.397916 -2.397916 
C 1.761981 -3.03385 0.899347 -3.391165 0 -3.391165 
C -0.899347 -3.391165 -1.761981 -3.03385 -2.397916 -2.397916 
C -3.03385 -1.761981 -3.391165 -0.899347 -3.391165 0 
C -3.391165 0.899347 -3.03385 1.761981 -2.397916 2.397916 
C -1.761981 3.03385 -0.899347 3.391165 0 3.391165 
z
" style="stroke: #ffffff; stroke-width: 0.8"/>
    </defs>
    <g clip-path="url(#pef9e0053fb)">
     <use xlink:href="#m23bc2085f1" x="285.809615" y="431.863421" style="fill: #8a8f5c; stroke: #ffffff; stroke-width: 0.8"/>
     <use xlink:href="#m23bc2085f1" x="310.33255" y="431.825047" style="fill: #8a8f5c; stroke: #ffffff; stroke-width: 0.8"/>
     <use xlink:href="#m23bc2085f1" x="423.465028" y="431.620386" style="fill: #8a8f5c; stroke: #ffffff; stroke-width: 0.8"/>
     <use xlink:href="#m23bc2085f1" x="449.622826" y="431.492473" style="fill: #8a8f5c; stroke: #ffffff; stroke-width: 0.8"/>
     <use xlink:href="#m23bc2085f1" x="501.284477" y="431.279285" style="fill: #8a8f5c; stroke: #ffffff; stroke-width: 0.8"/>
     <use xlink:href="#m23bc2085f1" x="524.826495" y="430.895546" style="fill: #8a8f5c; stroke: #ffffff; stroke-width: 0.8"/>
    </g>
   </g>
   <g id="PathCollection_9"/>
   <g id="PathCollection_10">
    <defs>
     <path id="m1f51d3ff03" d="M 0 3.391165 
C 0.899347 3.391165 1.761981 3.03385 2.397916 2.397916 
C 3.03385 1.761981 3.391165 0.899347 3.391165 0 
C 3.391165 -0.899347 3.03385 -1.761981 2.397916 -2.397916 
C 1.761981 -3.03385 0.899347 -3.391165 0 -3.391165 
C -0.899347 -3.391165 -1.761981 -3.03385 -2.397916 -2.397916 
C -3.03385 -1.761981 -3.391165 -0.899347 -3.391165 0 
C -3.391165 0.899347 -3.03385 1.761981 -2.397916 2.397916 
C -1.761981 3.03385 -0.899347 3.391165 0 3.391165 
z
" style="stroke: #9aa9c4; stroke-width: 1.5"/>
    </defs>
    <g clip-path="url(#pef9e0053fb)">
     <use xlink:href="#m1f51d3ff03" x="106.628697" y="431.882182" style="fill: #ffffff; stroke: #9aa9c4; stroke-width: 1.5"/>
     <use xlink:href="#m1f51d3ff03" x="225.973651" y="431.843808" style="fill: #ffffff; stroke: #9aa9c4; stroke-width: 1.5"/>
     <use xlink:href="#m1f51d3ff03" x="315.891083" y="431.865979" style="fill: #ffffff; stroke: #9aa9c4; stroke-width: 1.5"/>
     <use xlink:href="#m1f51d3ff03" x="375.727046" y="431.758959" style="fill: #ffffff; stroke: #9aa9c4; stroke-width: 1.5"/>
     <use xlink:href="#m1f51d3ff03" x="435.236037" y="431.691591" style="fill: #ffffff; stroke: #9aa9c4; stroke-width: 1.5"/>
     <use xlink:href="#m1f51d3ff03" x="495.072" y="431.266493" style="fill: #ffffff; stroke: #9aa9c4; stroke-width: 1.5"/>
    </g>
   </g>
   <g id="legend_1">
    <g id="text_15">
     <text style="font-size: 9.2px; font-family: 'DejaVu Sans', 'Arial', 'Helvetica', sans-serif; text-anchor: start; fill: #1a1a1a" x="682.349694" y="151.508963" transform="rotate(-0 682.349694 151.508963)">Company</text>
    </g>
    <g id="PathCollection_11">
     <g>
      <use xlink:href="#mc036a66632" x="656.9856" y="162.695213" style="fill: #b4763a; stroke: #ffffff; stroke-width: 0.8"/>
     </g>
    </g>
    <g id="text_16">
     <text style="font-size: 9px; font-family: 'DejaVu Sans', 'Arial', 'Helvetica', sans-serif; text-anchor: start; fill: #1a1a1a" x="671.3856" y="165.057713" transform="rotate(-0 671.3856 165.057713)">Anthropic  (n=15)</text>
    </g>
    <g id="PathCollection_12">
     <g>
      <use xlink:href="#m32c611953b" x="656.9856" y="176.195916" style="fill: #1f3864; stroke: #ffffff; stroke-width: 0.8"/>
     </g>
    </g>
    <g id="text_17">
     <text style="font-size: 9px; font-family: 'DejaVu Sans', 'Arial', 'Helvetica', sans-serif; text-anchor: start; fill: #1a1a1a" x="671.3856" y="178.558416" transform="rotate(-0 671.3856 178.558416)">OpenAI  (n=16)</text>
    </g>
    <g id="PathCollection_13">
     <g>
      <use xlink:href="#mfadcb01b82" x="656.9856" y="189.696619" style="fill: #4e8a8b; stroke: #ffffff; stroke-width: 0.8"/>
     </g>
    </g>
    <g id="text_18">
     <text style="font-size: 9px; font-family: 'DejaVu Sans', 'Arial', 'Helvetica', sans-serif; text-anchor: start; fill: #1a1a1a" x="671.3856" y="192.059119" transform="rotate(-0 671.3856 192.059119)">DeepSeek  (n=1)</text>
    </g>
    <g id="PathCollection_14">
     <g>
      <use xlink:href="#m328f44c2a2" x="656.9856" y="203.197322" style="fill: #7d5a7d; stroke: #ffffff; stroke-width: 0.8"/>
     </g>
    </g>
    <g id="text_19">
     <text style="font-size: 9px; font-family: 'DejaVu Sans', 'Arial', 'Helvetica', sans-serif; text-anchor: start; fill: #1a1a1a" x="671.3856" y="205.559822" transform="rotate(-0 671.3856 205.559822)">xAI  (n=4)</text>
    </g>
    <g id="PathCollection_15">
     <g>
      <use xlink:href="#m8bcbacb3d3" x="656.9856" y="216.698025" style="fill: #a46b6b; stroke: #ffffff; stroke-width: 0.8"/>
     </g>
    </g>
    <g id="text_20">
     <text style="font-size: 9px; font-family: 'DejaVu Sans', 'Arial', 'Helvetica', sans-serif; text-anchor: start; fill: #1a1a1a" x="671.3856" y="219.060525" transform="rotate(-0 671.3856 219.060525)">Mistral AI  (n=2)</text>
    </g>
    <g id="PathCollection_16">
     <g>
      <use xlink:href="#m9f745c1f9d" x="656.9856" y="230.198728" style="fill: #5f7a99; stroke: #ffffff; stroke-width: 0.8"/>
     </g>
    </g>
    <g id="text_21">
     <text style="font-size: 9px; font-family: 'DejaVu Sans', 'Arial', 'Helvetica', sans-serif; text-anchor: start; fill: #1a1a1a" x="671.3856" y="232.561228" transform="rotate(-0 671.3856 232.561228)">Moonshot AI  (n=2)</text>
    </g>
    <g id="PathCollection_17">
     <g>
      <use xlink:href="#m23bc2085f1" x="656.9856" y="243.699431" style="fill: #8a8f5c; stroke: #ffffff; stroke-width: 0.8"/>
     </g>
    </g>
    <g id="text_22">
     <text style="font-size: 9px; font-family: 'DejaVu Sans', 'Arial', 'Helvetica', sans-serif; text-anchor: start; fill: #1a1a1a" x="671.3856" y="246.061931" transform="rotate(-0 671.3856 246.061931)">Cohere  (n=6)</text>
    </g>
    <g id="PathCollection_18">
     <defs>
      <path id="m05c9f28b39" d="M 0 3.391165 
C 0.899347 3.391165 1.761981 3.03385 2.397916 2.397916 
C 3.03385 1.761981 3.391165 0.899347 3.391165 0 
C 3.391165 -0.899347 3.03385 -1.761981 2.397916 -2.397916 
C 1.761981 -3.03385 0.899347 -3.391165 0 -3.391165 
C -0.899347 -3.391165 -1.761981 -3.03385 -2.397916 -2.397916 
C -3.03385 -1.761981 -3.391165 -0.899347 -3.391165 0 
C -3.391165 0.899347 -3.03385 1.761981 -2.397916 2.397916 
C -1.761981 3.03385 -0.899347 3.391165 0 3.391165 
z
" style="stroke: #ffffff; stroke-width: 0.8"/>
     </defs>
     <g>
      <use xlink:href="#m05c9f28b39" x="656.9856" y="257.200134" style="fill: #9aa9c4; stroke: #ffffff; stroke-width: 0.8"/>
     </g>
    </g>
    <g id="text_23">
     <text style="font-size: 9px; font-family: 'DejaVu Sans', 'Arial', 'Helvetica', sans-serif; text-anchor: start; fill: #1a1a1a" x="671.3856" y="259.562634" transform="rotate(-0 671.3856 259.562634)">Z.ai (Zhipu)  (n=6)</text>
    </g>
   </g>
   <g id="legend_2">
    <g id="text_24">
     <text style="font-size: 9.2px; font-family: 'DejaVu Sans', 'Arial', 'Helvetica', sans-serif; text-anchor: start; fill: #1a1a1a" x="682.349694" y="151.508963" transform="rotate(-0 682.349694 151.508963)">Company</text>
    </g>
    <g id="PathCollection_19">
     <g>
      <use xlink:href="#mc036a66632" x="656.9856" y="162.695213" style="fill: #b4763a; stroke: #ffffff; stroke-width: 0.8"/>
     </g>
    </g>
    <g id="text_25">
     <text style="font-size: 9px; font-family: 'DejaVu Sans', 'Arial', 'Helvetica', sans-serif; text-anchor: start; fill: #1a1a1a" x="671.3856" y="165.057713" transform="rotate(-0 671.3856 165.057713)">Anthropic  (n=15)</text>
    </g>
    <g id="PathCollection_20">
     <g>
      <use xlink:href="#m32c611953b" x="656.9856" y="176.195916" style="fill: #1f3864; stroke: #ffffff; stroke-width: 0.8"/>
     </g>
    </g>
    <g id="text_26">
     <text style="font-size: 9px; font-family: 'DejaVu Sans', 'Arial', 'Helvetica', sans-serif; text-anchor: start; fill: #1a1a1a" x="671.3856" y="178.558416" transform="rotate(-0 671.3856 178.558416)">OpenAI  (n=16)</text>
    </g>
    <g id="PathCollection_21">
     <g>
      <use xlink:href="#mfadcb01b82" x="656.9856" y="189.696619" style="fill: #4e8a8b; stroke: #ffffff; stroke-width: 0.8"/>
     </g>
    </g>
    <g id="text_27">
     <text style="font-size: 9px; font-family: 'DejaVu Sans', 'Arial', 'Helvetica', sans-serif; text-anchor: start; fill: #1a1a1a" x="671.3856" y="192.059119" transform="rotate(-0 671.3856 192.059119)">DeepSeek  (n=1)</text>
    </g>
    <g id="PathCollection_22">
     <g>
      <use xlink:href="#m328f44c2a2" x="656.9856" y="203.197322" style="fill: #7d5a7d; stroke: #ffffff; stroke-width: 0.8"/>
     </g>
    </g>
    <g id="text_28">
     <text style="font-size: 9px; font-family: 'DejaVu Sans', 'Arial', 'Helvetica', sans-serif; text-anchor: start; fill: #1a1a1a" x="671.3856" y="205.559822" transform="rotate(-0 671.3856 205.559822)">xAI  (n=4)</text>
    </g>
    <g id="PathCollection_23">
     <g>
      <use xlink:href="#m8bcbacb3d3" x="656.9856" y="216.698025" style="fill: #a46b6b; stroke: #ffffff; stroke-width: 0.8"/>
     </g>
    </g>
    <g id="text_29">
     <text style="font-size: 9px; font-family: 'DejaVu Sans', 'Arial', 'Helvetica', sans-serif; text-anchor: start; fill: #1a1a1a" x="671.3856" y="219.060525" transform="rotate(-0 671.3856 219.060525)">Mistral AI  (n=2)</text>
    </g>
    <g id="PathCollection_24">
     <g>
      <use xlink:href="#m9f745c1f9d" x="656.9856" y="230.198728" style="fill: #5f7a99; stroke: #ffffff; stroke-width: 0.8"/>
     </g>
    </g>
    <g id="text_30">
     <text style="font-size: 9px; font-family: 'DejaVu Sans', 'Arial', 'Helvetica', sans-serif; text-anchor: start; fill: #1a1a1a" x="671.3856" y="232.561228" transform="rotate(-0 671.3856 232.561228)">Moonshot AI  (n=2)</text>
    </g>
    <g id="PathCollection_25">
     <g>
      <use xlink:href="#m23bc2085f1" x="656.9856" y="243.699431" style="fill: #8a8f5c; stroke: #ffffff; stroke-width: 0.8"/>
     </g>
    </g>
    <g id="text_31">
     <text style="font-size: 9px; font-family: 'DejaVu Sans', 'Arial', 'Helvetica', sans-serif; text-anchor: start; fill: #1a1a1a" x="671.3856" y="246.061931" transform="rotate(-0 671.3856 246.061931)">Cohere  (n=6)</text>
    </g>
    <g id="PathCollection_26">
     <g>
      <use xlink:href="#m05c9f28b39" x="656.9856" y="257.200134" style="fill: #9aa9c4; stroke: #ffffff; stroke-width: 0.8"/>
     </g>
    </g>
    <g id="text_32">
     <text style="font-size: 9px; font-family: 'DejaVu Sans', 'Arial', 'Helvetica', sans-serif; text-anchor: start; fill: #1a1a1a" x="671.3856" y="259.562634" transform="rotate(-0 671.3856 259.562634)">Z.ai (Zhipu)  (n=6)</text>
    </g>
   </g>
   <g id="text_33">
    <g id="patch_5">
     <path d="M 77.08608 167.557975 
L 327.196736 167.557975 
Q 331.018736 167.557975 331.018736 163.735975 
L 331.018736 154.635264 
Q 331.018736 150.813264 327.196736 150.813264 
L 77.08608 150.813264 
Q 73.26408 150.813264 73.26408 154.635264 
L 73.26408 163.735975 
Q 73.26408 167.557975 77.08608 167.557975 
z
" style="fill: #1f3864"/>
    </g>
    <text style="font-weight: 700; font-size: 9.1px; font-family: 'DejaVu Sans', 'Arial', 'Helvetica', sans-serif; text-anchor: start; fill: #ffffff" x="77.08608" y="161.549842" transform="rotate(-0 77.08608 161.549842)">  OBSERVED DATA ONLY  ·  projections excluded  </text>
   </g>
  </g>
  <g id="line2d_30">
   <path d="M 30.24 479.0016 
L 833.76 479.0016 
" style="fill: none; stroke: #d7dbe2; stroke-width: 0.8; stroke-linecap: square"/>
  </g>
  <g id="text_34">
   <text style="font-weight: 700; font-size: 10.5px; font-family: 'DejaVu Sans Mono', 'Bitstream Vera Sans Mono', 'Computer Modern Typewriter', 'Andale Mono', 'Nimbus Mono L', 'Courier New', 'Courier', 'Fixed', 'Terminal', monospace; text-anchor: start; fill: #1f3864" x="30.24" y="24.911939" transform="rotate(-0 30.24 24.911939)">COMPANIES-02</text>
  </g>
  <g id="text_35">
   <text style="font-weight: 700; font-size: 15.5px; font-family: 'DejaVu Sans', 'Arial', 'Helvetica', sans-serif; text-anchor: start; fill: #1a1a1a" x="30.24" y="55.323178" transform="rotate(-0 30.24 55.323178)">Annualised revenue of AI companies, linear scale</text>
  </g>
  <g id="text_36">
   <text style="font-size: 10.2px; font-family: 'DejaVu Sans', 'Arial', 'Helvetica', sans-serif; text-anchor: start; fill: #6b7280" x="30.24" y="79.116806" transform="rotate(-0 30.24 79.116806)">What it shows: annualised revenue for every AI company where Epoch records it, plotted at the date of the report. 52</text>
  </g>
  <g id="text_37">
   <text style="font-size: 10.2px; font-family: 'DejaVu Sans', 'Arial', 'Helvetica', sans-serif; text-anchor: start; fill: #6b7280" x="30.24" y="97.260806" transform="rotate(-0 30.24 97.260806)">observations across 8 companies. Annualised revenue is the run rate Epoch records at that date - the most recent period</text>
  </g>
  <g id="text_38">
   <text style="font-size: 10.2px; font-family: 'DejaVu Sans', 'Arial', 'Helvetica', sans-serif; text-anchor: start; fill: #6b7280" x="30.24" y="115.404806" transform="rotate(-0 30.24 115.404806)">scaled to a year, not audited annual revenue.</text>
  </g>
  <g id="text_39">
   <text style="font-size: 8.6px; font-family: 'DejaVu Sans', 'Arial', 'Helvetica', sans-serif; text-anchor: start; fill: #6b7280" x="30.24" y="498.841856" transform="rotate(-0 30.24 498.841856)">Source: Epoch AI, AI Companies (CC-BY) — ai_companies_revenue_reports.csv — epoch.ai/data/ai-companies</text>
  </g>
  <g id="text_40">
   <text style="font-size: 8.6px; font-family: 'DejaVu Sans', 'Arial', 'Helvetica', sans-serif; text-anchor: start; fill: #6b7280" x="30.24" y="514.566656" transform="rotate(-0 30.24 514.566656)">Methodology: Methodology reference pending final methodology document; derivation follows Epoch AI's published AI companies documentation</text>
  </g>
  <g id="text_41">
   <text style="font-style: italic; font-size: 8.4px; font-family: 'DejaVu Sans', 'Arial', 'Helvetica', sans-serif; text-anchor: start; fill: #6b7280" x="30.24" y="530.139488" transform="rotate(-0 30.24 530.139488)">Note: Linear scale, which is what the largest company looks like next to the rest - the same data as the log view and the reason Epoch</text>
  </g>
  <g id="text_42">
   <text style="font-style: italic; font-size: 8.4px; font-family: 'DejaVu Sans', 'Arial', 'Helvetica', sans-serif; text-anchor: start; fill: #6b7280" x="30.24" y="544.654688" transform="rotate(-0 30.24 544.654688)">      defaults to log. Open markers are Epoch annualising a disclosed period figure (a reported quarter multiplied out) rather than a</text>
  </g>
  <g id="text_43">
   <text style="font-style: italic; font-size: 8.4px; font-family: 'DejaVu Sans', 'Arial', 'Helvetica', sans-serif; text-anchor: start; fill: #6b7280" x="30.24" y="559.169888" transform="rotate(-0 30.24 559.169888)">      disclosed annual rate. A company is absent from a chart wherever Epoch records no value - never imputed, back-filled or carried</text>
  </g>
  <g id="text_44">
   <text style="font-style: italic; font-size: 8.4px; font-family: 'DejaVu Sans', 'Arial', 'Helvetica', sans-serif; text-anchor: start; fill: #6b7280" x="30.24" y="573.684431" transform="rotate(-0 30.24 573.684431)">      across.</text>
  </g>
 </g>
 <defs>
  <clipPath id="pef9e0053fb">
   <rect x="67.392" y="140.9184" width="570.24" height="304.8192"/>
  </clipPath>
 </defs>
</svg>
