<?xml version="1.0" encoding="utf-8" standalone="no"?>
<!DOCTYPE svg PUBLIC "-//W3C//DTD SVG 1.1//EN"
  "http://www.w3.org/Graphics/SVG/1.1/DTD/svg11.dtd">
<svg xmlns:xlink="http://www.w3.org/1999/xlink" width="864pt" height="568.8pt" viewBox="0 0 864 568.8" xmlns="http://www.w3.org/2000/svg" version="1.1">
 <metadata>
  <rdf:RDF xmlns:dc="http://purl.org/dc/elements/1.1/" xmlns:cc="http://creativecommons.org/ns#" xmlns:rdf="http://www.w3.org/1999/02/22-rdf-syntax-ns#">
   <cc:Work>
    <dc:type rdf:resource="http://purl.org/dc/dcmitype/StillImage"/>
    <dc:format>image/svg+xml</dc:format>
    <dc:creator>
     <cc:Agent>
      <dc:title>Matplotlib v3.9.4, https://matplotlib.org/</dc:title>
     </cc:Agent>
    </dc:creator>
   </cc:Work>
  </rdf:RDF>
 </metadata>
 <defs>
  <style type="text/css">*{stroke-linejoin: round; stroke-linecap: butt}</style>
 </defs>
 <g id="figure_1">
  <g id="patch_1">
   <path d="M 0 568.8 
L 864 568.8 
L 864 0 
L 0 0 
z
" style="fill: #ffffff"/>
  </g>
  <g id="axes_1">
   <g id="patch_2">
    <path d="M 76.032 371.9952 
L 829.44 371.9952 
L 829.44 132.5304 
L 76.032 132.5304 
z
" style="fill: #ffffff"/>
   </g>
   <g id="matplotlib.axis_1">
    <g id="xtick_1">
     <g id="line2d_1">
      <defs>
       <path id="ma3a00a99b0" d="M 0 0 
L 0 3.5 
" style="stroke: #6b7280; stroke-width: 0.8"/>
      </defs>
      <g>
       <use xlink:href="#ma3a00a99b0" x="76.032" y="371.9952" style="fill: #6b7280; stroke: #6b7280; stroke-width: 0.8"/>
      </g>
     </g>
     <g id="text_1">
      <text style="fill: #6b7280; font: 10px 'DejaVu Sans', 'Arial', 'Helvetica', sans-serif; text-anchor: middle" x="76.032" y="386.593638" transform="rotate(-0 76.032 386.593638)">2023</text>
     </g>
    </g>
    <g id="xtick_2">
     <g id="line2d_2">
      <g>
       <use xlink:href="#ma3a00a99b0" x="285.471391" y="371.9952" style="fill: #6b7280; stroke: #6b7280; stroke-width: 0.8"/>
      </g>
     </g>
     <g id="text_2">
      <text style="fill: #6b7280; font: 10px 'DejaVu Sans', 'Arial', 'Helvetica', sans-serif; text-anchor: middle" x="285.471391" y="386.593638" transform="rotate(-0 285.471391 386.593638)">2024</text>
     </g>
    </g>
    <g id="xtick_3">
     <g id="line2d_3">
      <g>
       <use xlink:href="#ma3a00a99b0" x="495.484588" y="371.9952" style="fill: #6b7280; stroke: #6b7280; stroke-width: 0.8"/>
      </g>
     </g>
     <g id="text_3">
      <text style="fill: #6b7280; font: 10px 'DejaVu Sans', 'Arial', 'Helvetica', sans-serif; text-anchor: middle" x="495.484588" y="386.593638" transform="rotate(-0 495.484588 386.593638)">2025</text>
     </g>
    </g>
    <g id="xtick_4">
     <g id="line2d_4">
      <g>
       <use xlink:href="#ma3a00a99b0" x="704.923979" y="371.9952" style="fill: #6b7280; stroke: #6b7280; stroke-width: 0.8"/>
      </g>
     </g>
     <g id="text_4">
      <text style="fill: #6b7280; font: 10px 'DejaVu Sans', 'Arial', 'Helvetica', sans-serif; text-anchor: middle" x="704.923979" y="386.593638" transform="rotate(-0 704.923979 386.593638)">2026</text>
     </g>
    </g>
    <g id="xtick_5">
     <g id="line2d_5">
      <defs>
       <path id="md3b7e89768" d="M 0 0 
L 0 2 
" style="stroke: #6b7280; stroke-width: 0.6"/>
      </defs>
      <g>
       <use xlink:href="#md3b7e89768" x="127.674589" y="371.9952" style="fill: #6b7280; stroke: #6b7280; stroke-width: 0.6"/>
      </g>
     </g>
    </g>
    <g id="xtick_6">
     <g id="line2d_6">
      <g>
       <use xlink:href="#md3b7e89768" x="179.890986" y="371.9952" style="fill: #6b7280; stroke: #6b7280; stroke-width: 0.6"/>
      </g>
     </g>
    </g>
    <g id="xtick_7">
     <g id="line2d_7">
      <g>
       <use xlink:href="#md3b7e89768" x="232.681188" y="371.9952" style="fill: #6b7280; stroke: #6b7280; stroke-width: 0.6"/>
      </g>
     </g>
    </g>
    <g id="xtick_8">
     <g id="line2d_8">
      <g>
       <use xlink:href="#md3b7e89768" x="337.687787" y="371.9952" style="fill: #6b7280; stroke: #6b7280; stroke-width: 0.6"/>
      </g>
     </g>
    </g>
    <g id="xtick_9">
     <g id="line2d_9">
      <g>
       <use xlink:href="#md3b7e89768" x="389.904183" y="371.9952" style="fill: #6b7280; stroke: #6b7280; stroke-width: 0.6"/>
      </g>
     </g>
    </g>
    <g id="xtick_10">
     <g id="line2d_10">
      <g>
       <use xlink:href="#md3b7e89768" x="442.694385" y="371.9952" style="fill: #6b7280; stroke: #6b7280; stroke-width: 0.6"/>
      </g>
     </g>
    </g>
    <g id="xtick_11">
     <g id="line2d_11">
      <g>
       <use xlink:href="#md3b7e89768" x="547.127177" y="371.9952" style="fill: #6b7280; stroke: #6b7280; stroke-width: 0.6"/>
      </g>
     </g>
    </g>
    <g id="xtick_12">
     <g id="line2d_12">
      <g>
       <use xlink:href="#md3b7e89768" x="599.343573" y="371.9952" style="fill: #6b7280; stroke: #6b7280; stroke-width: 0.6"/>
      </g>
     </g>
    </g>
    <g id="xtick_13">
     <g id="line2d_13">
      <g>
       <use xlink:href="#md3b7e89768" x="652.133776" y="371.9952" style="fill: #6b7280; stroke: #6b7280; stroke-width: 0.6"/>
      </g>
     </g>
    </g>
    <g id="xtick_14">
     <g id="line2d_14">
      <g>
       <use xlink:href="#md3b7e89768" x="756.566568" y="371.9952" style="fill: #6b7280; stroke: #6b7280; stroke-width: 0.6"/>
      </g>
     </g>
    </g>
    <g id="xtick_15">
     <g id="line2d_15">
      <g>
       <use xlink:href="#md3b7e89768" x="808.782964" y="371.9952" style="fill: #6b7280; stroke: #6b7280; stroke-width: 0.6"/>
      </g>
     </g>
    </g>
    <g id="text_5">
     <text style="fill: #1a1a1a; font: 10px 'DejaVu Sans', 'Arial', 'Helvetica', sans-serif; text-anchor: middle" x="452.736" y="400.271763" transform="rotate(-0 452.736 400.271763)">Date</text>
    </g>
   </g>
   <g id="matplotlib.axis_2">
    <g id="ytick_1">
     <g id="line2d_16">
      <path d="M 76.032 371.9952 
L 829.44 371.9952 
" clip-path="url(#p11d38a94d0)" style="fill: none; stroke: #d7dbe2; stroke-opacity: 0.9; stroke-width: 0.7; stroke-linecap: square"/>
     </g>
     <g id="line2d_17">
      <defs>
       <path id="mdfe75e7a28" d="M 0 0 
L -3.5 0 
" style="stroke: #6b7280; stroke-width: 0.8"/>
      </defs>
      <g>
       <use xlink:href="#mdfe75e7a28" x="76.032" y="371.9952" style="fill: #6b7280; stroke: #6b7280; stroke-width: 0.8"/>
      </g>
     </g>
     <g id="text_6">
      <text style="fill: #6b7280; font: 10px 'DejaVu Sans', 'Arial', 'Helvetica', sans-serif; text-anchor: end" x="69.032" y="375.794419" transform="rotate(-0 69.032 375.794419)">0.0 GW</text>
     </g>
    </g>
    <g id="ytick_2">
     <g id="line2d_18">
      <path d="M 76.032 339.052259 
L 829.44 339.052259 
" clip-path="url(#p11d38a94d0)" style="fill: none; stroke: #d7dbe2; stroke-opacity: 0.9; stroke-width: 0.7; stroke-linecap: square"/>
     </g>
     <g id="line2d_19">
      <g>
       <use xlink:href="#mdfe75e7a28" x="76.032" y="339.052259" style="fill: #6b7280; stroke: #6b7280; stroke-width: 0.8"/>
      </g>
     </g>
     <g id="text_7">
      <text style="fill: #6b7280; font: 10px 'DejaVu Sans', 'Arial', 'Helvetica', sans-serif; text-anchor: end" x="69.032" y="342.851478" transform="rotate(-0 69.032 342.851478)">2.0 GW</text>
     </g>
    </g>
    <g id="ytick_3">
     <g id="line2d_20">
      <path d="M 76.032 306.109319 
L 829.44 306.109319 
" clip-path="url(#p11d38a94d0)" style="fill: none; stroke: #d7dbe2; stroke-opacity: 0.9; stroke-width: 0.7; stroke-linecap: square"/>
     </g>
     <g id="line2d_21">
      <g>
       <use xlink:href="#mdfe75e7a28" x="76.032" y="306.109319" style="fill: #6b7280; stroke: #6b7280; stroke-width: 0.8"/>
      </g>
     </g>
     <g id="text_8">
      <text style="fill: #6b7280; font: 10px 'DejaVu Sans', 'Arial', 'Helvetica', sans-serif; text-anchor: end" x="69.032" y="309.908537" transform="rotate(-0 69.032 309.908537)">4.0 GW</text>
     </g>
    </g>
    <g id="ytick_4">
     <g id="line2d_22">
      <path d="M 76.032 273.166378 
L 829.44 273.166378 
" clip-path="url(#p11d38a94d0)" style="fill: none; stroke: #d7dbe2; stroke-opacity: 0.9; stroke-width: 0.7; stroke-linecap: square"/>
     </g>
     <g id="line2d_23">
      <g>
       <use xlink:href="#mdfe75e7a28" x="76.032" y="273.166378" style="fill: #6b7280; stroke: #6b7280; stroke-width: 0.8"/>
      </g>
     </g>
     <g id="text_9">
      <text style="fill: #6b7280; font: 10px 'DejaVu Sans', 'Arial', 'Helvetica', sans-serif; text-anchor: end" x="69.032" y="276.965597" transform="rotate(-0 69.032 276.965597)">6.0 GW</text>
     </g>
    </g>
    <g id="ytick_5">
     <g id="line2d_24">
      <path d="M 76.032 240.223437 
L 829.44 240.223437 
" clip-path="url(#p11d38a94d0)" style="fill: none; stroke: #d7dbe2; stroke-opacity: 0.9; stroke-width: 0.7; stroke-linecap: square"/>
     </g>
     <g id="line2d_25">
      <g>
       <use xlink:href="#mdfe75e7a28" x="76.032" y="240.223437" style="fill: #6b7280; stroke: #6b7280; stroke-width: 0.8"/>
      </g>
     </g>
     <g id="text_10">
      <text style="fill: #6b7280; font: 10px 'DejaVu Sans', 'Arial', 'Helvetica', sans-serif; text-anchor: end" x="69.032" y="244.022656" transform="rotate(-0 69.032 244.022656)">8.0 GW</text>
     </g>
    </g>
    <g id="ytick_6">
     <g id="line2d_26">
      <path d="M 76.032 207.280496 
L 829.44 207.280496 
" clip-path="url(#p11d38a94d0)" style="fill: none; stroke: #d7dbe2; stroke-opacity: 0.9; stroke-width: 0.7; stroke-linecap: square"/>
     </g>
     <g id="line2d_27">
      <g>
       <use xlink:href="#mdfe75e7a28" x="76.032" y="207.280496" style="fill: #6b7280; stroke: #6b7280; stroke-width: 0.8"/>
      </g>
     </g>
     <g id="text_11">
      <text style="fill: #6b7280; font: 10px 'DejaVu Sans', 'Arial', 'Helvetica', sans-serif; text-anchor: end" x="69.032" y="211.079715" transform="rotate(-0 69.032 211.079715)">10.0 GW</text>
     </g>
    </g>
    <g id="ytick_7">
     <g id="line2d_28">
      <path d="M 76.032 174.337556 
L 829.44 174.337556 
" clip-path="url(#p11d38a94d0)" style="fill: none; stroke: #d7dbe2; stroke-opacity: 0.9; stroke-width: 0.7; stroke-linecap: square"/>
     </g>
     <g id="line2d_29">
      <g>
       <use xlink:href="#mdfe75e7a28" x="76.032" y="174.337556" style="fill: #6b7280; stroke: #6b7280; stroke-width: 0.8"/>
      </g>
     </g>
     <g id="text_12">
      <text style="fill: #6b7280; font: 10px 'DejaVu Sans', 'Arial', 'Helvetica', sans-serif; text-anchor: end" x="69.032" y="178.136774" transform="rotate(-0 69.032 178.136774)">12.0 GW</text>
     </g>
    </g>
    <g id="ytick_8">
     <g id="line2d_30">
      <path d="M 76.032 141.394615 
L 829.44 141.394615 
" clip-path="url(#p11d38a94d0)" style="fill: none; stroke: #d7dbe2; stroke-opacity: 0.9; stroke-width: 0.7; stroke-linecap: square"/>
     </g>
     <g id="line2d_31">
      <g>
       <use xlink:href="#mdfe75e7a28" x="76.032" y="141.394615" style="fill: #6b7280; stroke: #6b7280; stroke-width: 0.8"/>
      </g>
     </g>
     <g id="text_13">
      <text style="fill: #6b7280; font: 10px 'DejaVu Sans', 'Arial', 'Helvetica', sans-serif; text-anchor: end" x="69.032" y="145.193834" transform="rotate(-0 69.032 145.193834)">14.0 GW</text>
     </g>
    </g>
    <g id="text_14">
     <text style="fill: #1a1a1a; font: 10px 'DejaVu Sans', 'Arial', 'Helvetica', sans-serif; text-anchor: middle" x="19.872625" y="252.2628" transform="rotate(-90 19.872625 252.2628)">Installed IT power (GW)</text>
    </g>
   </g>
   <g id="patch_3">
    <path d="M 76.032 371.9952 
L 76.032 132.5304 
" style="fill: none; stroke: #d7dbe2; stroke-width: 0.8; stroke-linejoin: miter; stroke-linecap: square"/>
   </g>
   <g id="patch_4">
    <path d="M 76.032 371.9952 
L 829.44 371.9952 
" style="fill: none; stroke: #d7dbe2; stroke-width: 0.8; stroke-linejoin: miter; stroke-linecap: square"/>
   </g>
   <g id="PolyCollection_1">
    <defs>
     <path id="md1cc339eb4" d="M 76.032 -196.8048 
L 76.032 -197.595431 
L 88.655744 -197.595431 
L 88.655744 -198.896677 
L 96.115229 -198.896677 
L 96.115229 -198.896677 
L 127.674589 -198.896677 
L 127.674589 -198.896677 
L 132.265042 -198.896677 
L 132.265042 -198.896677 
L 140.87214 -198.896677 
L 140.87214 -199.555536 
L 144.314979 -199.555536 
L 144.314979 -199.555536 
L 156.364917 -199.555536 
L 156.364917 -199.555536 
L 179.317179 -199.555536 
L 179.317179 -200.329695 
L 179.890986 -200.329695 
L 179.890986 -200.329695 
L 187.350471 -200.329695 
L 187.350471 -200.329695 
L 214.319379 -200.329695 
L 214.319379 -201.663884 
L 221.205057 -201.663884 
L 221.205057 -201.663884 
L 225.221703 -201.663884 
L 225.221703 -201.663884 
L 232.681188 -201.663884 
L 232.681188 -201.663884 
L 233.254995 -201.663884 
L 233.254995 -201.663884 
L 236.697834 -201.663884 
L 236.697834 -201.663884 
L 249.895385 -201.663884 
L 249.895385 -201.663884 
L 251.042998 -201.663884 
L 251.042998 -201.663884 
L 265.961968 -201.663884 
L 265.961968 -201.663884 
L 275.716679 -201.663884 
L 275.716679 -201.663884 
L 285.471391 -201.663884 
L 285.471391 -202.783944 
L 298.095135 -202.783944 
L 298.095135 -202.783944 
L 301.537974 -202.783944 
L 301.537974 -203.558103 
L 302.685587 -203.558103 
L 302.685587 -203.854589 
L 303.259394 -203.854589 
L 303.259394 -203.854589 
L 307.849846 -203.854589 
L 307.849846 -203.854589 
L 311.292685 -203.854589 
L 311.292685 -203.854589 
L 316.456944 -203.854589 
L 316.456944 -203.854589 
L 319.899784 -203.854589 
L 319.899784 -203.854589 
L 327.933075 -203.854589 
L 327.933075 -203.854589 
L 337.687787 -203.854589 
L 337.687787 -204.925235 
L 341.704433 -204.925235 
L 341.704433 -206.226481 
L 348.590111 -206.226481 
L 348.590111 -207.346541 
L 350.885337 -207.346541 
L 350.885337 -207.346541 
L 353.75437 -207.346541 
L 353.75437 -208.977217 
L 354.328177 -208.977217 
L 354.328177 -209.12546 
L 354.901983 -209.12546 
L 354.901983 -209.12546 
L 362.935275 -209.12546 
L 362.935275 -209.12546 
L 368.099534 -209.12546 
L 368.099534 -209.899619 
L 371.542373 -209.899619 
L 371.542373 -209.899619 
L 372.11618 -209.899619 
L 372.11618 -209.899619 
L 373.837599 -209.899619 
L 373.837599 -209.899619 
L 377.854245 -209.899619 
L 377.854245 -209.899619 
L 385.31373 -209.899619 
L 385.31373 -210.673778 
L 386.461343 -210.673778 
L 386.461343 -210.673778 
L 389.904183 -210.673778 
L 389.904183 -210.986736 
L 400.232701 -210.986736 
L 400.232701 -211.859724 
L 402.527927 -211.859724 
L 402.527927 -211.859724 
L 403.101733 -211.859724 
L 403.101733 -211.859724 
L 405.970766 -211.859724 
L 405.970766 -211.859724 
L 407.692186 -211.859724 
L 407.692186 -211.859724 
L 408.839799 -211.859724 
L 408.839799 -214.462216 
L 413.430251 -214.462216 
L 413.430251 -215.038718 
L 426.053995 -215.038718 
L 426.053995 -216.751751 
L 432.365867 -216.751751 
L 432.365867 -218.052997 
L 442.694385 -218.052997 
L 442.694385 -219.453072 
L 459.908582 -219.453072 
L 459.908582 -219.453072 
L 460.482388 -219.453072 
L 460.482388 -219.453072 
L 470.2371 -219.453072 
L 470.2371 -219.453072 
L 470.810906 -219.453072 
L 470.810906 -222.055564 
L 488.598909 -222.055564 
L 488.598909 -222.055564 
L 494.910781 -222.055564 
L 494.910781 -222.879138 
L 504.091686 -222.879138 
L 504.091686 -223.554468 
L 504.665493 -223.554468 
L 504.665493 -223.554468 
L 507.534526 -223.554468 
L 507.534526 -223.554468 
L 510.977365 -223.554468 
L 510.977365 -223.554468 
L 512.124978 -223.554468 
L 512.124978 -223.554468 
L 514.994011 -223.554468 
L 514.994011 -225.531044 
L 515.567817 -225.531044 
L 515.567817 -225.531044 
L 522.453496 -225.531044 
L 522.453496 -227.820579 
L 524.174915 -227.820579 
L 524.174915 -228.106025 
L 526.470142 -228.106025 
L 526.470142 -228.106025 
L 528.765368 -228.106025 
L 528.765368 -228.106025 
L 529.339174 -228.106025 
L 529.339174 -230.74146 
L 532.208207 -230.74146 
L 532.208207 -230.74146 
L 532.782014 -230.74146 
L 532.782014 -232.009763 
L 535.07724 -232.009763 
L 535.07724 -232.009763 
L 537.946273 -232.009763 
L 537.946273 -232.009763 
L 547.127177 -232.009763 
L 547.127177 -232.009763 
L 558.603308 -232.009763 
L 558.603308 -232.009763 
L 563.193761 -232.009763 
L 563.193761 -233.640439 
L 564.341374 -233.640439 
L 564.341374 -233.640439 
L 569.505633 -233.640439 
L 569.505633 -233.640439 
L 572.374666 -233.640439 
L 572.374666 -234.183997 
L 574.669892 -234.183997 
L 574.669892 -234.183997 
L 579.834151 -234.183997 
L 579.834151 -234.183997 
L 581.55557 -234.183997 
L 581.55557 -234.315769 
L 582.129377 -234.315769 
L 582.129377 -236.401057 
L 583.27699 -236.401057 
L 583.27699 -237.191688 
L 586.719829 -237.191688 
L 586.719829 -237.191688 
L 587.293636 -237.191688 
L 587.293636 -237.191688 
L 589.015056 -237.191688 
L 589.015056 -237.191688 
L 590.162669 -237.191688 
L 590.162669 -238.492934 
L 594.753121 -238.492934 
L 594.753121 -249.726477 
L 597.622154 -249.726477 
L 597.622154 -249.726477 
L 598.769767 -249.726477 
L 598.769767 -251.044194 
L 599.343573 -251.044194 
L 599.343573 -253.938231 
L 601.064993 -253.938231 
L 601.064993 -253.938231 
L 609.672091 -253.938231 
L 609.672091 -253.938231 
L 611.393511 -253.938231 
L 611.393511 -254.959463 
L 617.131577 -254.959463 
L 617.131577 -254.959463 
L 618.27919 -254.959463 
L 618.27919 -254.959463 
L 628.607708 -254.959463 
L 628.607708 -254.959463 
L 630.902934 -254.959463 
L 630.902934 -256.227766 
L 632.050547 -256.227766 
L 632.050547 -256.227766 
L 633.19816 -256.227766 
L 633.19816 -256.227766 
L 634.91958 -256.227766 
L 634.91958 -259.670303 
L 638.362419 -259.670303 
L 638.362419 -259.670303 
L 638.936225 -259.670303 
L 638.936225 -259.670303 
L 640.657645 -259.670303 
L 640.657645 -259.670303 
L 644.100484 -259.670303 
L 644.100484 -259.884432 
L 645.821904 -259.884432 
L 645.821904 -259.884432 
L 649.264743 -259.884432 
L 649.264743 -261.613937 
L 649.83855 -261.613937 
L 649.83855 -261.613937 
L 650.412356 -261.613937 
L 650.412356 -261.613937 
L 652.133776 -261.613937 
L 652.133776 -263.294027 
L 653.855196 -263.294027 
L 653.855196 -263.294027 
L 656.150422 -263.294027 
L 656.150422 -263.294027 
L 658.445648 -263.294027 
L 658.445648 -263.294027 
L 659.593261 -263.294027 
L 659.593261 -271.694477 
L 660.740874 -271.694477 
L 660.740874 -271.694477 
L 661.314681 -271.694477 
L 661.314681 -271.694477 
L 662.462294 -271.694477 
L 662.462294 -275.631158 
L 663.609907 -275.631158 
L 663.609907 -275.631158 
L 664.75752 -275.631158 
L 664.75752 -275.631158 
L 667.052746 -275.631158 
L 667.052746 -276.454731 
L 667.626553 -276.454731 
L 667.626553 -276.454731 
L 669.347973 -276.454731 
L 669.347973 -277.591263 
L 669.921779 -277.591263 
L 669.921779 -279.781968 
L 670.495586 -279.781968 
L 670.495586 -279.781968 
L 671.069392 -279.781968 
L 671.069392 -279.781968 
L 673.364618 -279.781968 
L 673.364618 -280.967914 
L 676.233651 -280.967914 
L 676.233651 -280.967914 
L 677.955071 -280.967914 
L 677.955071 -280.967914 
L 678.528877 -280.967914 
L 678.528877 -280.967914 
L 680.250297 -280.967914 
L 680.250297 -281.758545 
L 683.11933 -281.758545 
L 683.11933 -282.055031 
L 687.135976 -282.055031 
L 687.135976 -283.339806 
L 688.857395 -283.339806 
L 688.857395 -283.339806 
L 690.578815 -283.339806 
L 690.578815 -285.530512 
L 691.726428 -285.530512 
L 691.726428 -288.034175 
L 695.169267 -288.034175 
L 695.169267 -288.034175 
L 699.75972 -288.034175 
L 699.75972 -291.78967 
L 700.333526 -291.78967 
L 700.333526 -293.535646 
L 703.202559 -293.535646 
L 703.202559 -293.535646 
L 704.350172 -293.535646 
L 704.350172 -295.693409 
L 705.497785 -295.693409 
L 705.497785 -295.693409 
L 706.071592 -295.693409 
L 706.071592 -297.077012 
L 706.645398 -297.077012 
L 706.645398 -297.077012 
L 710.662044 -297.077012 
L 710.662044 -297.077012 
L 711.809657 -297.077012 
L 711.809657 -297.077012 
L 712.95727 -297.077012 
L 712.95727 -297.077012 
L 714.67869 -297.077012 
L 714.67869 -301.409009 
L 715.826303 -301.409009 
L 715.826303 -301.409009 
L 716.973916 -301.409009 
L 716.973916 -304.538588 
L 720.416756 -304.538588 
L 720.416756 -304.538588 
L 722.138175 -304.538588 
L 722.138175 -304.538588 
L 722.711982 -304.538588 
L 722.711982 -305.442872 
L 724.433401 -305.442872 
L 724.433401 -305.442872 
L 725.581014 -305.442872 
L 725.581014 -305.442872 
L 727.302434 -305.442872 
L 727.302434 -305.442872 
L 728.450047 -305.442872 
L 728.450047 -305.442872 
L 729.59766 -305.442872 
L 729.59766 -306.233503 
L 730.171467 -306.233503 
L 730.171467 -306.233503 
L 730.745273 -306.233503 
L 730.745273 -306.76059 
L 733.614306 -306.76059 
L 733.614306 -307.221791 
L 734.188113 -307.221791 
L 734.188113 -307.221791 
L 735.335726 -307.221791 
L 735.335726 -308.275965 
L 737.630952 -308.275965 
L 737.630952 -309.412497 
L 738.204759 -309.412497 
L 738.204759 -309.412497 
L 738.778565 -309.412497 
L 738.778565 -310.845514 
L 739.352372 -310.845514 
L 739.352372 -311.438487 
L 741.073791 -311.438487 
L 741.073791 -311.438487 
L 741.647598 -311.438487 
L 741.647598 -311.438487 
L 745.090437 -311.438487 
L 745.090437 -311.438487 
L 746.811857 -311.438487 
L 746.811857 -311.438487 
L 749.107083 -311.438487 
L 749.107083 -311.438487 
L 749.68089 -311.438487 
L 749.68089 -311.438487 
L 750.254696 -311.438487 
L 750.254696 -311.438487 
L 750.828503 -311.438487 
L 750.828503 -311.438487 
L 751.402309 -311.438487 
L 751.402309 -316.116385 
L 751.976116 -316.116385 
L 751.976116 -316.116385 
L 753.697535 -316.116385 
L 753.697535 -316.116385 
L 755.992762 -316.116385 
L 755.992762 -317.269388 
L 757.714181 -317.269388 
L 757.714181 -317.812946 
L 758.287988 -317.812946 
L 758.287988 -317.812946 
L 758.861794 -317.812946 
L 758.861794 -317.812946 
L 759.435601 -317.812946 
L 759.435601 -321.947285 
L 760.583214 -321.947285 
L 760.583214 -321.947285 
L 761.157021 -321.947285 
L 761.157021 -321.947285 
L 763.452247 -321.947285 
L 763.452247 -321.947285 
L 764.026053 -321.947285 
L 764.026053 -321.947285 
L 764.59986 -321.947285 
L 764.59986 -322.770859 
L 765.173666 -322.770859 
L 765.173666 -328.848832 
L 765.747473 -328.848832 
L 765.747473 -329.491219 
L 766.895086 -329.491219 
L 766.895086 -330.62775 
L 769.190312 -330.62775 
L 769.190312 -330.62775 
L 771.485538 -330.62775 
L 771.485538 -330.62775 
L 772.633152 -330.62775 
L 772.633152 -331.896054 
L 773.780765 -331.896054 
L 773.780765 -334.383246 
L 774.354571 -334.383246 
L 774.354571 -334.383246 
L 775.502184 -334.383246 
L 775.502184 -334.383246 
L 776.649797 -334.383246 
L 776.649797 -334.860918 
L 777.223604 -334.860918 
L 777.223604 -334.860918 
L 779.51883 -334.860918 
L 779.51883 -334.860918 
L 780.092637 -334.860918 
L 780.092637 -337.183396 
L 781.24025 -337.183396 
L 781.24025 -339.35763 
L 781.814056 -339.35763 
L 781.814056 -343.113125 
L 783.535476 -343.113125 
L 783.535476 -345.649731 
L 784.683089 -345.649731 
L 784.683089 -347.889851 
L 786.404509 -347.889851 
L 786.404509 -351.34886 
L 788.125928 -351.34886 
L 788.125928 -351.34886 
L 789.273542 -351.34886 
L 789.273542 -352.485392 
L 790.994961 -352.485392 
L 790.994961 -353.177193 
L 791.568768 -353.177193 
L 791.568768 -355.680857 
L 792.716381 -355.680857 
L 792.716381 -355.680857 
L 793.290187 -355.680857 
L 793.290187 -358.612779 
L 795.011607 -358.612779 
L 795.011607 -358.612779 
L 798.454446 -358.612779 
L 798.454446 -358.612779 
L 799.028253 -358.612779 
L 799.028253 -363.801292 
L 799.602059 -363.801292 
L 799.602059 -372.7453 
L 800.175866 -372.7453 
L 800.175866 -374.013603 
L 801.323479 -374.013603 
L 801.323479 -376.533738 
L 801.897286 -376.533738 
L 801.897286 -379.46566 
L 808.209158 -379.46566 
L 808.209158 -382.94114 
L 808.782964 -382.94114 
L 808.782964 -385.009957 
L 809.930577 -385.009957 
L 809.930577 -387.16772 
L 812.225804 -387.16772 
L 812.225804 -388.468966 
L 813.947223 -388.468966 
L 813.947223 -388.468966 
L 815.094836 -388.468966 
L 815.094836 -388.468966 
L 816.816256 -388.468966 
L 816.816256 -390.807914 
L 822.554321 -390.807914 
L 822.554321 -393.311578 
L 826.570967 -393.311578 
L 826.570967 -395.041082 
L 827.144774 -395.041082 
L 827.144774 -396.3588 
L 829.44 -396.3588 
L 829.44 -396.3588 
L 829.44 -196.8048 
L 829.44 -196.8048 
L 829.44 -196.8048 
L 827.144774 -196.8048 
L 827.144774 -196.8048 
L 826.570967 -196.8048 
L 826.570967 -196.8048 
L 822.554321 -196.8048 
L 822.554321 -196.8048 
L 816.816256 -196.8048 
L 816.816256 -196.8048 
L 815.094836 -196.8048 
L 815.094836 -196.8048 
L 813.947223 -196.8048 
L 813.947223 -196.8048 
L 812.225804 -196.8048 
L 812.225804 -196.8048 
L 809.930577 -196.8048 
L 809.930577 -196.8048 
L 808.782964 -196.8048 
L 808.782964 -196.8048 
L 808.209158 -196.8048 
L 808.209158 -196.8048 
L 801.897286 -196.8048 
L 801.897286 -196.8048 
L 801.323479 -196.8048 
L 801.323479 -196.8048 
L 800.175866 -196.8048 
L 800.175866 -196.8048 
L 799.602059 -196.8048 
L 799.602059 -196.8048 
L 799.028253 -196.8048 
L 799.028253 -196.8048 
L 798.454446 -196.8048 
L 798.454446 -196.8048 
L 795.011607 -196.8048 
L 795.011607 -196.8048 
L 793.290187 -196.8048 
L 793.290187 -196.8048 
L 792.716381 -196.8048 
L 792.716381 -196.8048 
L 791.568768 -196.8048 
L 791.568768 -196.8048 
L 790.994961 -196.8048 
L 790.994961 -196.8048 
L 789.273542 -196.8048 
L 789.273542 -196.8048 
L 788.125928 -196.8048 
L 788.125928 -196.8048 
L 786.404509 -196.8048 
L 786.404509 -196.8048 
L 784.683089 -196.8048 
L 784.683089 -196.8048 
L 783.535476 -196.8048 
L 783.535476 -196.8048 
L 781.814056 -196.8048 
L 781.814056 -196.8048 
L 781.24025 -196.8048 
L 781.24025 -196.8048 
L 780.092637 -196.8048 
L 780.092637 -196.8048 
L 779.51883 -196.8048 
L 779.51883 -196.8048 
L 777.223604 -196.8048 
L 777.223604 -196.8048 
L 776.649797 -196.8048 
L 776.649797 -196.8048 
L 775.502184 -196.8048 
L 775.502184 -196.8048 
L 774.354571 -196.8048 
L 774.354571 -196.8048 
L 773.780765 -196.8048 
L 773.780765 -196.8048 
L 772.633152 -196.8048 
L 772.633152 -196.8048 
L 771.485538 -196.8048 
L 771.485538 -196.8048 
L 769.190312 -196.8048 
L 769.190312 -196.8048 
L 766.895086 -196.8048 
L 766.895086 -196.8048 
L 765.747473 -196.8048 
L 765.747473 -196.8048 
L 765.173666 -196.8048 
L 765.173666 -196.8048 
L 764.59986 -196.8048 
L 764.59986 -196.8048 
L 764.026053 -196.8048 
L 764.026053 -196.8048 
L 763.452247 -196.8048 
L 763.452247 -196.8048 
L 761.157021 -196.8048 
L 761.157021 -196.8048 
L 760.583214 -196.8048 
L 760.583214 -196.8048 
L 759.435601 -196.8048 
L 759.435601 -196.8048 
L 758.861794 -196.8048 
L 758.861794 -196.8048 
L 758.287988 -196.8048 
L 758.287988 -196.8048 
L 757.714181 -196.8048 
L 757.714181 -196.8048 
L 755.992762 -196.8048 
L 755.992762 -196.8048 
L 753.697535 -196.8048 
L 753.697535 -196.8048 
L 751.976116 -196.8048 
L 751.976116 -196.8048 
L 751.402309 -196.8048 
L 751.402309 -196.8048 
L 750.828503 -196.8048 
L 750.828503 -196.8048 
L 750.254696 -196.8048 
L 750.254696 -196.8048 
L 749.68089 -196.8048 
L 749.68089 -196.8048 
L 749.107083 -196.8048 
L 749.107083 -196.8048 
L 746.811857 -196.8048 
L 746.811857 -196.8048 
L 745.090437 -196.8048 
L 745.090437 -196.8048 
L 741.647598 -196.8048 
L 741.647598 -196.8048 
L 741.073791 -196.8048 
L 741.073791 -196.8048 
L 739.352372 -196.8048 
L 739.352372 -196.8048 
L 738.778565 -196.8048 
L 738.778565 -196.8048 
L 738.204759 -196.8048 
L 738.204759 -196.8048 
L 737.630952 -196.8048 
L 737.630952 -196.8048 
L 735.335726 -196.8048 
L 735.335726 -196.8048 
L 734.188113 -196.8048 
L 734.188113 -196.8048 
L 733.614306 -196.8048 
L 733.614306 -196.8048 
L 730.745273 -196.8048 
L 730.745273 -196.8048 
L 730.171467 -196.8048 
L 730.171467 -196.8048 
L 729.59766 -196.8048 
L 729.59766 -196.8048 
L 728.450047 -196.8048 
L 728.450047 -196.8048 
L 727.302434 -196.8048 
L 727.302434 -196.8048 
L 725.581014 -196.8048 
L 725.581014 -196.8048 
L 724.433401 -196.8048 
L 724.433401 -196.8048 
L 722.711982 -196.8048 
L 722.711982 -196.8048 
L 722.138175 -196.8048 
L 722.138175 -196.8048 
L 720.416756 -196.8048 
L 720.416756 -196.8048 
L 716.973916 -196.8048 
L 716.973916 -196.8048 
L 715.826303 -196.8048 
L 715.826303 -196.8048 
L 714.67869 -196.8048 
L 714.67869 -196.8048 
L 712.95727 -196.8048 
L 712.95727 -196.8048 
L 711.809657 -196.8048 
L 711.809657 -196.8048 
L 710.662044 -196.8048 
L 710.662044 -196.8048 
L 706.645398 -196.8048 
L 706.645398 -196.8048 
L 706.071592 -196.8048 
L 706.071592 -196.8048 
L 705.497785 -196.8048 
L 705.497785 -196.8048 
L 704.350172 -196.8048 
L 704.350172 -196.8048 
L 703.202559 -196.8048 
L 703.202559 -196.8048 
L 700.333526 -196.8048 
L 700.333526 -196.8048 
L 699.75972 -196.8048 
L 699.75972 -196.8048 
L 695.169267 -196.8048 
L 695.169267 -196.8048 
L 691.726428 -196.8048 
L 691.726428 -196.8048 
L 690.578815 -196.8048 
L 690.578815 -196.8048 
L 688.857395 -196.8048 
L 688.857395 -196.8048 
L 687.135976 -196.8048 
L 687.135976 -196.8048 
L 683.11933 -196.8048 
L 683.11933 -196.8048 
L 680.250297 -196.8048 
L 680.250297 -196.8048 
L 678.528877 -196.8048 
L 678.528877 -196.8048 
L 677.955071 -196.8048 
L 677.955071 -196.8048 
L 676.233651 -196.8048 
L 676.233651 -196.8048 
L 673.364618 -196.8048 
L 673.364618 -196.8048 
L 671.069392 -196.8048 
L 671.069392 -196.8048 
L 670.495586 -196.8048 
L 670.495586 -196.8048 
L 669.921779 -196.8048 
L 669.921779 -196.8048 
L 669.347973 -196.8048 
L 669.347973 -196.8048 
L 667.626553 -196.8048 
L 667.626553 -196.8048 
L 667.052746 -196.8048 
L 667.052746 -196.8048 
L 664.75752 -196.8048 
L 664.75752 -196.8048 
L 663.609907 -196.8048 
L 663.609907 -196.8048 
L 662.462294 -196.8048 
L 662.462294 -196.8048 
L 661.314681 -196.8048 
L 661.314681 -196.8048 
L 660.740874 -196.8048 
L 660.740874 -196.8048 
L 659.593261 -196.8048 
L 659.593261 -196.8048 
L 658.445648 -196.8048 
L 658.445648 -196.8048 
L 656.150422 -196.8048 
L 656.150422 -196.8048 
L 653.855196 -196.8048 
L 653.855196 -196.8048 
L 652.133776 -196.8048 
L 652.133776 -196.8048 
L 650.412356 -196.8048 
L 650.412356 -196.8048 
L 649.83855 -196.8048 
L 649.83855 -196.8048 
L 649.264743 -196.8048 
L 649.264743 -196.8048 
L 645.821904 -196.8048 
L 645.821904 -196.8048 
L 644.100484 -196.8048 
L 644.100484 -196.8048 
L 640.657645 -196.8048 
L 640.657645 -196.8048 
L 638.936225 -196.8048 
L 638.936225 -196.8048 
L 638.362419 -196.8048 
L 638.362419 -196.8048 
L 634.91958 -196.8048 
L 634.91958 -196.8048 
L 633.19816 -196.8048 
L 633.19816 -196.8048 
L 632.050547 -196.8048 
L 632.050547 -196.8048 
L 630.902934 -196.8048 
L 630.902934 -196.8048 
L 628.607708 -196.8048 
L 628.607708 -196.8048 
L 618.27919 -196.8048 
L 618.27919 -196.8048 
L 617.131577 -196.8048 
L 617.131577 -196.8048 
L 611.393511 -196.8048 
L 611.393511 -196.8048 
L 609.672091 -196.8048 
L 609.672091 -196.8048 
L 601.064993 -196.8048 
L 601.064993 -196.8048 
L 599.343573 -196.8048 
L 599.343573 -196.8048 
L 598.769767 -196.8048 
L 598.769767 -196.8048 
L 597.622154 -196.8048 
L 597.622154 -196.8048 
L 594.753121 -196.8048 
L 594.753121 -196.8048 
L 590.162669 -196.8048 
L 590.162669 -196.8048 
L 589.015056 -196.8048 
L 589.015056 -196.8048 
L 587.293636 -196.8048 
L 587.293636 -196.8048 
L 586.719829 -196.8048 
L 586.719829 -196.8048 
L 583.27699 -196.8048 
L 583.27699 -196.8048 
L 582.129377 -196.8048 
L 582.129377 -196.8048 
L 581.55557 -196.8048 
L 581.55557 -196.8048 
L 579.834151 -196.8048 
L 579.834151 -196.8048 
L 574.669892 -196.8048 
L 574.669892 -196.8048 
L 572.374666 -196.8048 
L 572.374666 -196.8048 
L 569.505633 -196.8048 
L 569.505633 -196.8048 
L 564.341374 -196.8048 
L 564.341374 -196.8048 
L 563.193761 -196.8048 
L 563.193761 -196.8048 
L 558.603308 -196.8048 
L 558.603308 -196.8048 
L 547.127177 -196.8048 
L 547.127177 -196.8048 
L 537.946273 -196.8048 
L 537.946273 -196.8048 
L 535.07724 -196.8048 
L 535.07724 -196.8048 
L 532.782014 -196.8048 
L 532.782014 -196.8048 
L 532.208207 -196.8048 
L 532.208207 -196.8048 
L 529.339174 -196.8048 
L 529.339174 -196.8048 
L 528.765368 -196.8048 
L 528.765368 -196.8048 
L 526.470142 -196.8048 
L 526.470142 -196.8048 
L 524.174915 -196.8048 
L 524.174915 -196.8048 
L 522.453496 -196.8048 
L 522.453496 -196.8048 
L 515.567817 -196.8048 
L 515.567817 -196.8048 
L 514.994011 -196.8048 
L 514.994011 -196.8048 
L 512.124978 -196.8048 
L 512.124978 -196.8048 
L 510.977365 -196.8048 
L 510.977365 -196.8048 
L 507.534526 -196.8048 
L 507.534526 -196.8048 
L 504.665493 -196.8048 
L 504.665493 -196.8048 
L 504.091686 -196.8048 
L 504.091686 -196.8048 
L 494.910781 -196.8048 
L 494.910781 -196.8048 
L 488.598909 -196.8048 
L 488.598909 -196.8048 
L 470.810906 -196.8048 
L 470.810906 -196.8048 
L 470.2371 -196.8048 
L 470.2371 -196.8048 
L 460.482388 -196.8048 
L 460.482388 -196.8048 
L 459.908582 -196.8048 
L 459.908582 -196.8048 
L 442.694385 -196.8048 
L 442.694385 -196.8048 
L 432.365867 -196.8048 
L 432.365867 -196.8048 
L 426.053995 -196.8048 
L 426.053995 -196.8048 
L 413.430251 -196.8048 
L 413.430251 -196.8048 
L 408.839799 -196.8048 
L 408.839799 -196.8048 
L 407.692186 -196.8048 
L 407.692186 -196.8048 
L 405.970766 -196.8048 
L 405.970766 -196.8048 
L 403.101733 -196.8048 
L 403.101733 -196.8048 
L 402.527927 -196.8048 
L 402.527927 -196.8048 
L 400.232701 -196.8048 
L 400.232701 -196.8048 
L 389.904183 -196.8048 
L 389.904183 -196.8048 
L 386.461343 -196.8048 
L 386.461343 -196.8048 
L 385.31373 -196.8048 
L 385.31373 -196.8048 
L 377.854245 -196.8048 
L 377.854245 -196.8048 
L 373.837599 -196.8048 
L 373.837599 -196.8048 
L 372.11618 -196.8048 
L 372.11618 -196.8048 
L 371.542373 -196.8048 
L 371.542373 -196.8048 
L 368.099534 -196.8048 
L 368.099534 -196.8048 
L 362.935275 -196.8048 
L 362.935275 -196.8048 
L 354.901983 -196.8048 
L 354.901983 -196.8048 
L 354.328177 -196.8048 
L 354.328177 -196.8048 
L 353.75437 -196.8048 
L 353.75437 -196.8048 
L 350.885337 -196.8048 
L 350.885337 -196.8048 
L 348.590111 -196.8048 
L 348.590111 -196.8048 
L 341.704433 -196.8048 
L 341.704433 -196.8048 
L 337.687787 -196.8048 
L 337.687787 -196.8048 
L 327.933075 -196.8048 
L 327.933075 -196.8048 
L 319.899784 -196.8048 
L 319.899784 -196.8048 
L 316.456944 -196.8048 
L 316.456944 -196.8048 
L 311.292685 -196.8048 
L 311.292685 -196.8048 
L 307.849846 -196.8048 
L 307.849846 -196.8048 
L 303.259394 -196.8048 
L 303.259394 -196.8048 
L 302.685587 -196.8048 
L 302.685587 -196.8048 
L 301.537974 -196.8048 
L 301.537974 -196.8048 
L 298.095135 -196.8048 
L 298.095135 -196.8048 
L 285.471391 -196.8048 
L 285.471391 -196.8048 
L 275.716679 -196.8048 
L 275.716679 -196.8048 
L 265.961968 -196.8048 
L 265.961968 -196.8048 
L 251.042998 -196.8048 
L 251.042998 -196.8048 
L 249.895385 -196.8048 
L 249.895385 -196.8048 
L 236.697834 -196.8048 
L 236.697834 -196.8048 
L 233.254995 -196.8048 
L 233.254995 -196.8048 
L 232.681188 -196.8048 
L 232.681188 -196.8048 
L 225.221703 -196.8048 
L 225.221703 -196.8048 
L 221.205057 -196.8048 
L 221.205057 -196.8048 
L 214.319379 -196.8048 
L 214.319379 -196.8048 
L 187.350471 -196.8048 
L 187.350471 -196.8048 
L 179.890986 -196.8048 
L 179.890986 -196.8048 
L 179.317179 -196.8048 
L 179.317179 -196.8048 
L 156.364917 -196.8048 
L 156.364917 -196.8048 
L 144.314979 -196.8048 
L 144.314979 -196.8048 
L 140.87214 -196.8048 
L 140.87214 -196.8048 
L 132.265042 -196.8048 
L 132.265042 -196.8048 
L 127.674589 -196.8048 
L 127.674589 -196.8048 
L 96.115229 -196.8048 
L 96.115229 -196.8048 
L 88.655744 -196.8048 
L 88.655744 -196.8048 
L 76.032 -196.8048 
z
" style="stroke: #1f3864; stroke-opacity: 0.11"/>
    </defs>
    <g clip-path="url(#p11d38a94d0)">
     <use xlink:href="#md1cc339eb4" x="0" y="568.8" style="fill: #1f3864; fill-opacity: 0.11; stroke: #1f3864; stroke-opacity: 0.11"/>
    </g>
   </g>
   <g id="line2d_32">
    <path d="M 76.032 371.204569 
L 88.655744 371.204569 
L 88.655744 369.903323 
L 140.87214 369.903323 
L 140.87214 369.244464 
L 179.317179 369.244464 
L 179.317179 368.470305 
L 214.319379 368.470305 
L 214.319379 367.136116 
L 285.471391 367.136116 
L 285.471391 366.016056 
L 301.537974 366.016056 
L 301.537974 365.241897 
L 302.685587 365.241897 
L 302.685587 364.945411 
L 337.687787 364.945411 
L 337.687787 363.874765 
L 341.704433 363.874765 
L 341.704433 362.573519 
L 348.590111 362.573519 
L 348.590111 361.453459 
L 353.75437 361.453459 
L 353.75437 359.822783 
L 354.328177 359.822783 
L 354.328177 359.67454 
L 368.099534 359.67454 
L 368.099534 358.900381 
L 385.31373 358.900381 
L 385.31373 358.126222 
L 389.904183 358.126222 
L 389.904183 357.813264 
L 400.232701 357.813264 
L 400.232701 356.940276 
L 408.839799 356.940276 
L 408.839799 354.337784 
L 413.430251 354.337784 
L 413.430251 353.761282 
L 426.053995 353.761282 
L 426.053995 352.048249 
L 432.365867 352.048249 
L 432.365867 350.747003 
L 442.694385 350.747003 
L 442.694385 349.346928 
L 470.810906 349.346928 
L 470.810906 346.744436 
L 494.910781 346.744436 
L 494.910781 345.920862 
L 504.091686 345.920862 
L 504.091686 345.245532 
L 514.994011 345.245532 
L 514.994011 343.268956 
L 522.453496 343.268956 
L 522.453496 340.979421 
L 524.174915 340.979421 
L 524.174915 340.693975 
L 529.339174 340.693975 
L 529.339174 338.05854 
L 532.782014 338.05854 
L 532.782014 336.790237 
L 563.193761 336.790237 
L 563.193761 335.159561 
L 572.374666 335.159561 
L 572.374666 334.616003 
L 581.55557 334.616003 
L 581.55557 334.484231 
L 582.129377 334.484231 
L 582.129377 332.398943 
L 583.27699 332.398943 
L 583.27699 331.608312 
L 590.162669 331.608312 
L 590.162669 330.307066 
L 594.753121 330.307066 
L 594.753121 319.073523 
L 598.769767 319.073523 
L 598.769767 317.755806 
L 599.343573 317.755806 
L 599.343573 314.861769 
L 611.393511 314.861769 
L 611.393511 313.840537 
L 630.902934 313.840537 
L 630.902934 312.572234 
L 634.91958 312.572234 
L 634.91958 309.129697 
L 644.100484 309.129697 
L 644.100484 308.915568 
L 649.264743 308.915568 
L 649.264743 307.186063 
L 652.133776 307.186063 
L 652.133776 305.505973 
L 659.593261 305.505973 
L 659.593261 297.105523 
L 662.462294 297.105523 
L 662.462294 293.168842 
L 667.052746 293.168842 
L 667.052746 292.345269 
L 669.347973 292.345269 
L 669.347973 291.208737 
L 669.921779 291.208737 
L 669.921779 289.018032 
L 673.364618 289.018032 
L 673.364618 287.832086 
L 680.250297 287.832086 
L 680.250297 287.041455 
L 683.11933 287.041455 
L 683.11933 286.744969 
L 687.135976 286.744969 
L 687.135976 285.460194 
L 690.578815 285.460194 
L 690.578815 283.269488 
L 691.726428 283.269488 
L 691.726428 280.765825 
L 699.75972 280.765825 
L 699.75972 277.01033 
L 700.333526 277.01033 
L 700.333526 275.264354 
L 704.350172 275.264354 
L 704.350172 273.106591 
L 706.071592 273.106591 
L 706.071592 271.722988 
L 714.67869 271.722988 
L 714.67869 267.390991 
L 716.973916 267.390991 
L 716.973916 264.261412 
L 722.711982 264.261412 
L 722.711982 263.357128 
L 729.59766 263.357128 
L 729.59766 262.566497 
L 730.745273 262.566497 
L 730.745273 262.03941 
L 733.614306 262.03941 
L 733.614306 261.578209 
L 735.335726 261.578209 
L 735.335726 260.524035 
L 737.630952 260.524035 
L 737.630952 259.387503 
L 738.778565 259.387503 
L 738.778565 257.954486 
L 739.352372 257.954486 
L 739.352372 257.361513 
L 751.402309 257.361513 
L 751.402309 252.683615 
L 755.992762 252.683615 
L 755.992762 251.530612 
L 757.714181 251.530612 
L 757.714181 250.987054 
L 759.435601 250.987054 
L 759.435601 246.852715 
L 764.59986 246.852715 
L 764.59986 246.029141 
L 765.173666 246.029141 
L 765.173666 239.951168 
L 765.747473 239.951168 
L 765.747473 239.308781 
L 766.895086 239.308781 
L 766.895086 238.17225 
L 772.633152 238.17225 
L 772.633152 236.903946 
L 773.780765 236.903946 
L 773.780765 234.416754 
L 776.649797 234.416754 
L 776.649797 233.939082 
L 780.092637 233.939082 
L 780.092637 231.616604 
L 781.24025 231.616604 
L 781.24025 229.44237 
L 781.814056 229.44237 
L 781.814056 225.686875 
L 783.535476 225.686875 
L 783.535476 223.150269 
L 784.683089 223.150269 
L 784.683089 220.910149 
L 786.404509 220.910149 
L 786.404509 217.45114 
L 789.273542 217.45114 
L 789.273542 216.314608 
L 790.994961 216.314608 
L 790.994961 215.622807 
L 791.568768 215.622807 
L 791.568768 213.119143 
L 793.290187 213.119143 
L 793.290187 210.187221 
L 799.028253 210.187221 
L 799.028253 204.998708 
L 799.602059 204.998708 
L 799.602059 196.0547 
L 800.175866 196.0547 
L 800.175866 194.786397 
L 801.323479 194.786397 
L 801.323479 192.266262 
L 801.897286 192.266262 
L 801.897286 189.33434 
L 808.209158 189.33434 
L 808.209158 185.85886 
L 808.782964 185.85886 
L 808.782964 183.790043 
L 809.930577 183.790043 
L 809.930577 181.63228 
L 812.225804 181.63228 
L 812.225804 180.331034 
L 816.816256 180.331034 
L 816.816256 177.992086 
L 822.554321 177.992086 
L 822.554321 175.488422 
L 826.570967 175.488422 
L 826.570967 173.758918 
L 827.144774 173.758918 
L 827.144774 172.4412 
L 829.44 172.4412 
L 829.44 172.4412 
" clip-path="url(#p11d38a94d0)" style="fill: none; stroke: #1f3864; stroke-width: 2.4; stroke-linecap: square"/>
   </g>
   <g id="line2d_33">
    <path d="M 829.44 172.4412 
" clip-path="url(#p11d38a94d0)" style="fill: none; stroke: #1f3864; stroke-width: 1.5; stroke-linecap: square"/>
    <defs>
     <path id="m24ade35a4b" d="M 0 3 
C 0.795609 3 1.55874 2.683901 2.12132 2.12132 
C 2.683901 1.55874 3 0.795609 3 0 
C 3 -0.795609 2.683901 -1.55874 2.12132 -2.12132 
C 1.55874 -2.683901 0.795609 -3 0 -3 
C -0.795609 -3 -1.55874 -2.683901 -2.12132 -2.12132 
C -2.683901 -1.55874 -3 -0.795609 -3 0 
C -3 0.795609 -2.683901 1.55874 -2.12132 2.12132 
C -1.55874 2.683901 -0.795609 3 0 3 
z
" style="stroke: #1f3864"/>
    </defs>
    <g clip-path="url(#p11d38a94d0)">
     <use xlink:href="#m24ade35a4b" x="829.44" y="172.4412" style="fill: #1f3864; stroke: #1f3864"/>
    </g>
   </g>
   <g id="text_15">
    <text style="fill: #1a1a1a; font: 700 10px 'DejaVu Sans', 'Arial', 'Helvetica', sans-serif" transform="translate(770.049375 143.1637)">12.1 GW</text>
    <text style="fill: #1a1a1a; font: 700 10px 'DejaVu Sans', 'Arial', 'Helvetica', sans-serif" transform="translate(753.4775 154.361513)">2026-08-06</text>
   </g>
   <g id="text_16">
    <g id="patch_5">
     <path d="M 88.839936 156.006504 
L 338.94917 156.006504 
Q 342.77117 156.006504 342.77117 152.184504 
L 342.77117 143.306316 
Q 342.77117 139.484316 338.94917 139.484316 
L 88.839936 139.484316 
Q 85.017936 139.484316 85.017936 143.306316 
L 85.017936 152.184504 
Q 85.017936 156.006504 88.839936 156.006504 
z
" style="fill: #1f3864"/>
    </g>
    <text style="fill: #ffffff; font: 700 9.1px 'DejaVu Sans', 'Arial', 'Helvetica', sans-serif; text-anchor: start" x="88.839936" y="150.220894" transform="rotate(-0 88.839936 150.220894)">  OBSERVED DATA ONLY  ·  projections excluded  </text>
   </g>
  </g>
  <g id="line2d_34">
   <path d="M 30.24 406.1232 
L 833.76 406.1232 
" style="fill: none; stroke: #d7dbe2; stroke-width: 0.8; stroke-linecap: square"/>
  </g>
  <g id="text_17">
   <text style="fill: #1f3864; font: 700 10.5px 'DejaVu Sans Mono', 'Bitstream Vera Sans Mono', 'Computer Modern Typewriter', 'Andale Mono', 'Nimbus Mono L', 'Courier New', 'Courier', 'Fixed', 'Terminal', monospace; text-anchor: start" x="30.24" y="23.904759" transform="rotate(-0 30.24 23.904759)">EPOCH-02</text>
  </g>
  <g id="text_18">
   <text style="fill: #1a1a1a; font: 700 15.5px 'DejaVu Sans', 'Arial', 'Helvetica', sans-serif; text-anchor: start" x="30.24" y="52.731178" transform="rotate(-0 30.24 52.731178)">IT power of AI data centers</text>
  </g>
  <g id="text_19">
   <text style="fill: #6b7280; font: 10.2px 'DejaVu Sans', 'Arial', 'Helvetica', sans-serif; text-anchor: start" x="30.24" y="74.868806" transform="rotate(-0 30.24 74.868806)">What it shows: total installed IT power across the 77 AI data centers Epoch tracks, reproduced from Epoch's published</text>
  </g>
  <g id="text_20">
   <text style="fill: #6b7280; font: 10.2px 'DejaVu Sans', 'Arial', 'Helvetica', sans-serif; text-anchor: start" x="30.24" y="91.932806" transform="rotate(-0 30.24 91.932806)">dataset. Observed data only — every future-dated milestone in the source has been excluded, so the series ends at the</text>
  </g>
  <g id="text_21">
   <text style="fill: #6b7280; font: 10.2px 'DejaVu Sans', 'Arial', 'Helvetica', sans-serif; text-anchor: start" x="30.24" y="108.996806" transform="rotate(-0 30.24 108.996806)">snapshot rather than running to 2030.</text>
  </g>
  <g id="text_22">
   <text style="fill: #6b7280; font: 8.6px 'DejaVu Sans', 'Arial', 'Helvetica', sans-serif; text-anchor: start" x="30.24" y="425.171456" transform="rotate(-0 30.24 425.171456)">Source: Epoch AI, AI Data Centers (CC-BY) — https://epoch.ai/data/ai-data-centers</text>
  </g>
  <g id="text_23">
   <text style="fill: #6b7280; font: 8.6px 'DejaVu Sans', 'Arial', 'Helvetica', sans-serif; text-anchor: start" x="30.24" y="439.960256" transform="rotate(-0 30.24 439.960256)">Methodology: Methodology reference pending final methodology document; derivation follows Epoch AI's published data centers documentation</text>
  </g>
  <g id="text_24">
   <text style="fill: #6b7280; font: italic 8.4px 'DejaVu Sans', 'Arial', 'Helvetica', sans-serif; text-anchor: start" x="30.24" y="454.597088" transform="rotate(-0 30.24 454.597088)">Note: Observed data only. Epoch's files carry no observed/projected flag, so the boundary is the date: 72 of 430 timeline records are dated</text>
  </g>
  <g id="text_25">
   <text style="fill: #6b7280; font: italic 8.4px 'DejaVu Sans', 'Arial', 'Helvetica', sans-serif; text-anchor: start" x="30.24" y="468.248288" transform="rotate(-0 30.24 468.248288)">      after the 2026-08-06 snapshot and are excluded as schedules, leaving 358 observed records. Including them would carry the line to</text>
  </g>
  <g id="text_26">
   <text style="fill: #6b7280; font: italic 8.4px 'DejaVu Sans', 'Arial', 'Helvetica', sans-serif; text-anchor: start" x="30.24" y="481.899488" transform="rotate(-0 30.24 481.899488)">      34.0 GW by 2030, which is a plan, not a measurement. The step-sum at the snapshot reproduces Epoch's own published current total</text>
  </g>
  <g id="text_27">
   <text style="fill: #6b7280; font: italic 8.4px 'DejaVu Sans', 'Arial', 'Helvetica', sans-serif; text-anchor: start" x="30.24" y="495.550688" transform="rotate(-0 30.24 495.550688)">      exactly. IT power is the load of the computing equipment itself, not the facility total, and is estimated by Epoch largely from</text>
  </g>
  <g id="text_28">
   <text style="fill: #6b7280; font: italic 8.4px 'DejaVu Sans', 'Arial', 'Helvetica', sans-serif; text-anchor: start" x="30.24" y="509.201888" transform="rotate(-0 30.24 509.201888)">      cooling equipment visible in satellite imagery. Facility power runs about 1.28x higher. Coverage is about 27% of AI compute delivered</text>
  </g>
  <g id="text_29">
   <text style="fill: #6b7280; font: italic 8.4px 'DejaVu Sans', 'Arial', 'Helvetica', sans-serif; text-anchor: start" x="30.24" y="522.853088" transform="rotate(-0 30.24 522.853088)">      globally and is strongest for the largest sites, so this is a floor on the world total. Values before 2023-01-01 are included in the</text>
  </g>
  <g id="text_30">
   <text style="fill: #6b7280; font: italic 8.4px 'DejaVu Sans', 'Arial', 'Helvetica', sans-serif; text-anchor: start" x="30.24" y="536.504288" transform="rotate(-0 30.24 536.504288)">      level but off the axis.</text>
  </g>
 </g>
 <defs>
  <clipPath id="p11d38a94d0">
   <rect x="76.032" y="132.5304" width="753.408" height="239.4648"/>
  </clipPath>
 </defs>
</svg>
