<?xml version="1.0" encoding="utf-8" standalone="no"?>
<!DOCTYPE svg PUBLIC "-//W3C//DTD SVG 1.1//EN"
  "http://www.w3.org/Graphics/SVG/1.1/DTD/svg11.dtd">
<svg xmlns:xlink="http://www.w3.org/1999/xlink" width="849.6pt" height="576pt" viewBox="0 0 849.6 576" xmlns="http://www.w3.org/2000/svg" version="1.1">
 <metadata>
  <rdf:RDF xmlns:dc="http://purl.org/dc/elements/1.1/" xmlns:cc="http://creativecommons.org/ns#" xmlns:rdf="http://www.w3.org/1999/02/22-rdf-syntax-ns#">
   <cc:Work>
    <dc:type rdf:resource="http://purl.org/dc/dcmitype/StillImage"/>
    <dc:format>image/svg+xml</dc:format>
    <dc:creator>
     <cc:Agent>
      <dc:title>Matplotlib v3.11.1, https://matplotlib.org/</dc:title>
     </cc:Agent>
    </dc:creator>
   </cc:Work>
  </rdf:RDF>
 </metadata>
 <defs>
  <style type="text/css">*{stroke-linejoin: round; stroke-linecap: butt}</style>
 </defs>
 <g id="figure_1">
  <g id="patch_1">
   <path d="M 0 576 
L 849.6 576 
L 849.6 0 
L 0 0 
z
" style="fill: #ffffff"/>
  </g>
  <g id="axes_1">
   <g id="patch_2">
    <path d="M 74.7648 422.784 
L 622.7568 422.784 
L 622.7568 134.208 
L 74.7648 134.208 
z
" style="fill: #ffffff"/>
   </g>
   <g id="matplotlib.axis_1">
    <g id="xtick_1">
     <g id="line2d_1">
      <path d="M 148.789328 422.784 
L 148.789328 134.208 
" clip-path="url(#p989191c69b)" style="fill: none; stroke: #d7dbe2; stroke-width: 0.7; stroke-linecap: square"/>
     </g>
     <g id="line2d_2">
      <defs>
       <path id="ma3a00a99b0" d="M 0 0 
L 0 3.5 
" style="stroke: #6b7280; stroke-width: 0.8"/>
      </defs>
      <g>
       <use xlink:href="#ma3a00a99b0" x="148.789328" y="422.784" style="fill: #6b7280; stroke: #6b7280; stroke-width: 0.8"/>
      </g>
     </g>
     <g id="text_1">
      <text style="font-size: 10px; font-family: 'DejaVu Sans', 'Arial', 'Helvetica', sans-serif; text-anchor: middle; fill: #6b7280" x="148.789328" y="437.381656" transform="rotate(-0 148.789328 437.381656)">2012</text>
     </g>
    </g>
    <g id="xtick_2">
     <g id="line2d_3">
      <path d="M 232.987842 422.784 
L 232.987842 134.208 
" clip-path="url(#p989191c69b)" style="fill: none; stroke: #d7dbe2; stroke-width: 0.7; stroke-linecap: square"/>
     </g>
     <g id="line2d_4">
      <g>
       <use xlink:href="#ma3a00a99b0" x="232.987842" y="422.784" style="fill: #6b7280; stroke: #6b7280; stroke-width: 0.8"/>
      </g>
     </g>
     <g id="text_2">
      <text style="font-size: 10px; font-family: 'DejaVu Sans', 'Arial', 'Helvetica', sans-serif; text-anchor: middle; fill: #6b7280" x="232.987842" y="437.381656" transform="rotate(-0 232.987842 437.381656)">2014</text>
     </g>
    </g>
    <g id="xtick_3">
     <g id="line2d_5">
      <path d="M 317.186357 422.784 
L 317.186357 134.208 
" clip-path="url(#p989191c69b)" style="fill: none; stroke: #d7dbe2; stroke-width: 0.7; stroke-linecap: square"/>
     </g>
     <g id="line2d_6">
      <g>
       <use xlink:href="#ma3a00a99b0" x="317.186357" y="422.784" style="fill: #6b7280; stroke: #6b7280; stroke-width: 0.8"/>
      </g>
     </g>
     <g id="text_3">
      <text style="font-size: 10px; font-family: 'DejaVu Sans', 'Arial', 'Helvetica', sans-serif; text-anchor: middle; fill: #6b7280" x="317.186357" y="437.381656" transform="rotate(-0 317.186357 437.381656)">2016</text>
     </g>
    </g>
    <g id="xtick_4">
     <g id="line2d_7">
      <path d="M 401.384872 422.784 
L 401.384872 134.208 
" clip-path="url(#p989191c69b)" style="fill: none; stroke: #d7dbe2; stroke-width: 0.7; stroke-linecap: square"/>
     </g>
     <g id="line2d_8">
      <g>
       <use xlink:href="#ma3a00a99b0" x="401.384872" y="422.784" style="fill: #6b7280; stroke: #6b7280; stroke-width: 0.8"/>
      </g>
     </g>
     <g id="text_4">
      <text style="font-size: 10px; font-family: 'DejaVu Sans', 'Arial', 'Helvetica', sans-serif; text-anchor: middle; fill: #6b7280" x="401.384872" y="437.381656" transform="rotate(-0 401.384872 437.381656)">2018</text>
     </g>
    </g>
    <g id="xtick_5">
     <g id="line2d_9">
      <path d="M 485.583386 422.784 
L 485.583386 134.208 
" clip-path="url(#p989191c69b)" style="fill: none; stroke: #d7dbe2; stroke-width: 0.7; stroke-linecap: square"/>
     </g>
     <g id="line2d_10">
      <g>
       <use xlink:href="#ma3a00a99b0" x="485.583386" y="422.784" style="fill: #6b7280; stroke: #6b7280; stroke-width: 0.8"/>
      </g>
     </g>
     <g id="text_5">
      <text style="font-size: 10px; font-family: 'DejaVu Sans', 'Arial', 'Helvetica', sans-serif; text-anchor: middle; fill: #6b7280" x="485.583386" y="437.381656" transform="rotate(-0 485.583386 437.381656)">2020</text>
     </g>
    </g>
    <g id="xtick_6">
     <g id="line2d_11">
      <path d="M 569.781901 422.784 
L 569.781901 134.208 
" clip-path="url(#p989191c69b)" style="fill: none; stroke: #d7dbe2; stroke-width: 0.7; stroke-linecap: square"/>
     </g>
     <g id="line2d_12">
      <g>
       <use xlink:href="#ma3a00a99b0" x="569.781901" y="422.784" style="fill: #6b7280; stroke: #6b7280; stroke-width: 0.8"/>
      </g>
     </g>
     <g id="text_6">
      <text style="font-size: 10px; font-family: 'DejaVu Sans', 'Arial', 'Helvetica', sans-serif; text-anchor: middle; fill: #6b7280" x="569.781901" y="437.381656" transform="rotate(-0 569.781901 437.381656)">2022</text>
     </g>
    </g>
    <g id="text_7">
     <text style="font-size: 10px; font-family: 'DejaVu Sans', 'Arial', 'Helvetica', sans-serif; text-anchor: middle; fill: #1a1a1a" x="348.7608" y="451.382437" transform="rotate(-0 348.7608 451.382437)">Release date of the training hardware</text>
    </g>
   </g>
   <g id="matplotlib.axis_2">
    <g id="ytick_1">
     <g id="line2d_13">
      <path d="M 74.7648 304.532508 
L 622.7568 304.532508 
" clip-path="url(#p989191c69b)" style="fill: none; stroke: #d7dbe2; stroke-opacity: 0.9; stroke-width: 0.7; stroke-linecap: square"/>
     </g>
     <g id="line2d_14">
      <defs>
       <path id="mdfe75e7a28" d="M 0 0 
L -3.5 0 
" style="stroke: #6b7280; stroke-width: 0.8"/>
      </defs>
      <g>
       <use xlink:href="#mdfe75e7a28" x="74.7648" y="304.532508" style="fill: #6b7280; stroke: #6b7280; stroke-width: 0.8"/>
      </g>
     </g>
     <g id="text_8">
      <text style="font-size: 10px; font-family: 'DejaVu Sans', 'Arial', 'Helvetica', sans-serif; text-anchor: end; fill: #6b7280" x="67.7648" y="308.331336" transform="rotate(-0 67.7648 308.331336)">10¹⁷</text>
     </g>
    </g>
    <g id="ytick_2">
     <g id="line2d_15">
      <path d="M 74.7648 174.77599 
L 622.7568 174.77599 
" clip-path="url(#p989191c69b)" style="fill: none; stroke: #d7dbe2; stroke-opacity: 0.9; stroke-width: 0.7; stroke-linecap: square"/>
     </g>
     <g id="line2d_16">
      <g>
       <use xlink:href="#mdfe75e7a28" x="74.7648" y="174.77599" style="fill: #6b7280; stroke: #6b7280; stroke-width: 0.8"/>
      </g>
     </g>
     <g id="text_9">
      <text style="font-size: 10px; font-family: 'DejaVu Sans', 'Arial', 'Helvetica', sans-serif; text-anchor: end; fill: #6b7280" x="67.7648" y="178.574818" transform="rotate(-0 67.7648 178.574818)">10¹⁸</text>
     </g>
    </g>
    <g id="text_10">
     <text style="font-size: 10px; font-family: 'DejaVu Sans', 'Arial', 'Helvetica', sans-serif; text-anchor: middle; fill: #1a1a1a" x="40.618706" y="278.496" transform="rotate(-90 40.618706 278.496)">FLOP per dollar of hardware (log scale)</text>
    </g>
   </g>
   <g id="patch_3">
    <path d="M 74.7648 422.784 
L 74.7648 134.208 
" style="fill: none; stroke: #d7dbe2; stroke-width: 0.8; stroke-linejoin: miter; stroke-linecap: square"/>
   </g>
   <g id="patch_4">
    <path d="M 74.7648 422.784 
L 622.7568 422.784 
" style="fill: none; stroke: #d7dbe2; stroke-width: 0.8; stroke-linejoin: miter; stroke-linecap: square"/>
   </g>
   <g id="PathCollection_1">
    <defs>
     <path id="m1b44a0f11c" d="M 0 3.316625 
C 0.879579 3.316625 1.723251 2.967164 2.345208 2.345208 
C 2.967164 1.723251 3.316625 0.879579 3.316625 0 
C 3.316625 -0.879579 2.967164 -1.723251 2.345208 -2.345208 
C 1.723251 -2.967164 0.879579 -3.316625 0 -3.316625 
C -0.879579 -3.316625 -1.723251 -2.967164 -2.345208 -2.345208 
C -2.967164 -1.723251 -3.316625 -0.879579 -3.316625 0 
C -3.316625 0.879579 -2.967164 1.723251 -2.345208 2.345208 
C -1.723251 2.967164 -0.879579 3.316625 0 3.316625 
z
" style="stroke: #ffffff; stroke-opacity: 0.9; stroke-width: 0.4"/>
    </defs>
    <g clip-path="url(#p989191c69b)">
     <use xlink:href="#m1b44a0f11c" x="415.417957" y="219.319014" style="fill: #1f3864; fill-opacity: 0.9; stroke: #ffffff; stroke-opacity: 0.9; stroke-width: 0.4"/>
     <use xlink:href="#m1b44a0f11c" x="415.417957" y="223.585238" style="fill: #1f3864; fill-opacity: 0.9; stroke: #ffffff; stroke-opacity: 0.9; stroke-width: 0.4"/>
     <use xlink:href="#m1b44a0f11c" x="415.417957" y="211.993186" style="fill: #1f3864; fill-opacity: 0.9; stroke: #ffffff; stroke-opacity: 0.9; stroke-width: 0.4"/>
     <use xlink:href="#m1b44a0f11c" x="415.417957" y="236.390015" style="fill: #1f3864; fill-opacity: 0.9; stroke: #ffffff; stroke-opacity: 0.9; stroke-width: 0.4"/>
     <use xlink:href="#m1b44a0f11c" x="415.417957" y="243.453384" style="fill: #1f3864; fill-opacity: 0.9; stroke: #ffffff; stroke-opacity: 0.9; stroke-width: 0.4"/>
     <use xlink:href="#m1b44a0f11c" x="415.417957" y="206.188011" style="fill: #1f3864; fill-opacity: 0.9; stroke: #ffffff; stroke-opacity: 0.9; stroke-width: 0.4"/>
     <use xlink:href="#m1b44a0f11c" x="415.417957" y="211.475842" style="fill: #1f3864; fill-opacity: 0.9; stroke: #ffffff; stroke-opacity: 0.9; stroke-width: 0.4"/>
     <use xlink:href="#m1b44a0f11c" x="415.417957" y="271.722949" style="fill: #1f3864; fill-opacity: 0.9; stroke: #ffffff; stroke-opacity: 0.9; stroke-width: 0.4"/>
     <use xlink:href="#m1b44a0f11c" x="415.417957" y="206.799675" style="fill: #1f3864; fill-opacity: 0.9; stroke: #ffffff; stroke-opacity: 0.9; stroke-width: 0.4"/>
     <use xlink:href="#m1b44a0f11c" x="415.417957" y="175.62836" style="fill: #1f3864; fill-opacity: 0.9; stroke: #ffffff; stroke-opacity: 0.9; stroke-width: 0.4"/>
     <use xlink:href="#m1b44a0f11c" x="415.417957" y="185.645715" style="fill: #1f3864; fill-opacity: 0.9; stroke: #ffffff; stroke-opacity: 0.9; stroke-width: 0.4"/>
    </g>
   </g>
   <g id="PathCollection_2">
    <defs>
     <path id="m704212e90d" d="M 0 3.316625 
C 0.879579 3.316625 1.723251 2.967164 2.345208 2.345208 
C 2.967164 1.723251 3.316625 0.879579 3.316625 0 
C 3.316625 -0.879579 2.967164 -1.723251 2.345208 -2.345208 
C 1.723251 -2.967164 0.879579 -3.316625 0 -3.316625 
C -0.879579 -3.316625 -1.723251 -2.967164 -2.345208 -2.345208 
C -2.967164 -1.723251 -3.316625 -0.879579 -3.316625 0 
C -3.316625 0.879579 -2.967164 1.723251 -2.345208 2.345208 
C -1.723251 2.967164 -0.879579 3.316625 0 3.316625 
z
" style="stroke: #ffffff; stroke-opacity: 0.9; stroke-width: 0.4"/>
    </defs>
    <g clip-path="url(#p989191c69b)">
     <use xlink:href="#m704212e90d" x="99.673527" y="364.74357" style="fill: #b4763a; fill-opacity: 0.9; stroke: #ffffff; stroke-opacity: 0.9; stroke-width: 0.4"/>
     <use xlink:href="#m704212e90d" x="99.673527" y="293.133012" style="fill: #b4763a; fill-opacity: 0.9; stroke: #ffffff; stroke-opacity: 0.9; stroke-width: 0.4"/>
     <use xlink:href="#m704212e90d" x="99.673527" y="354.856148" style="fill: #b4763a; fill-opacity: 0.9; stroke: #ffffff; stroke-opacity: 0.9; stroke-width: 0.4"/>
     <use xlink:href="#m704212e90d" x="99.673527" y="372.029755" style="fill: #b4763a; fill-opacity: 0.9; stroke: #ffffff; stroke-opacity: 0.9; stroke-width: 0.4"/>
     <use xlink:href="#m704212e90d" x="194.396856" y="327.914247" style="fill: #b4763a; fill-opacity: 0.9; stroke: #ffffff; stroke-opacity: 0.9; stroke-width: 0.4"/>
     <use xlink:href="#m704212e90d" x="236.496114" y="342.063586" style="fill: #b4763a; fill-opacity: 0.9; stroke: #ffffff; stroke-opacity: 0.9; stroke-width: 0.4"/>
     <use xlink:href="#m704212e90d" x="282.103643" y="293.649184" style="fill: #b4763a; fill-opacity: 0.9; stroke: #ffffff; stroke-opacity: 0.9; stroke-width: 0.4"/>
    </g>
   </g>
   <g id="PathCollection_3">
    <defs>
     <path id="mb3bcdc222d" d="M 0 3.316625 
C 0.879579 3.316625 1.723251 2.967164 2.345208 2.345208 
C 2.967164 1.723251 3.316625 0.879579 3.316625 0 
C 3.316625 -0.879579 2.967164 -1.723251 2.345208 -2.345208 
C 1.723251 -2.967164 0.879579 -3.316625 0 -3.316625 
C -0.879579 -3.316625 -1.723251 -2.967164 -2.345208 -2.345208 
C -2.967164 -1.723251 -3.316625 -0.879579 -3.316625 0 
C -3.316625 0.879579 -2.967164 1.723251 -2.345208 2.345208 
C -1.723251 2.967164 -0.879579 3.316625 0 3.316625 
z
" style="stroke: #ffffff; stroke-opacity: 0.9; stroke-width: 0.4"/>
    </defs>
    <g clip-path="url(#p989191c69b)">
     <use xlink:href="#mb3bcdc222d" x="492.599929" y="220.757557" style="fill: #6b8f71; fill-opacity: 0.9; stroke: #ffffff; stroke-opacity: 0.9; stroke-width: 0.4"/>
     <use xlink:href="#mb3bcdc222d" x="492.599929" y="219.433801" style="fill: #6b8f71; fill-opacity: 0.9; stroke: #ffffff; stroke-opacity: 0.9; stroke-width: 0.4"/>
     <use xlink:href="#mb3bcdc222d" x="492.599929" y="203.091672" style="fill: #6b8f71; fill-opacity: 0.9; stroke: #ffffff; stroke-opacity: 0.9; stroke-width: 0.4"/>
     <use xlink:href="#mb3bcdc222d" x="499.616472" y="233.939509" style="fill: #6b8f71; fill-opacity: 0.9; stroke: #ffffff; stroke-opacity: 0.9; stroke-width: 0.4"/>
     <use xlink:href="#mb3bcdc222d" x="499.616472" y="207.200687" style="fill: #6b8f71; fill-opacity: 0.9; stroke: #ffffff; stroke-opacity: 0.9; stroke-width: 0.4"/>
     <use xlink:href="#mb3bcdc222d" x="499.616472" y="210.938627" style="fill: #6b8f71; fill-opacity: 0.9; stroke: #ffffff; stroke-opacity: 0.9; stroke-width: 0.4"/>
     <use xlink:href="#mb3bcdc222d" x="520.666101" y="259.312522" style="fill: #6b8f71; fill-opacity: 0.9; stroke: #ffffff; stroke-opacity: 0.9; stroke-width: 0.4"/>
    </g>
   </g>
   <g id="PathCollection_4">
    <defs>
     <path id="m4bf9f7826b" d="M 0 3.316625 
C 0.879579 3.316625 1.723251 2.967164 2.345208 2.345208 
C 2.967164 1.723251 3.316625 0.879579 3.316625 0 
C 3.316625 -0.879579 2.967164 -1.723251 2.345208 -2.345208 
C 1.723251 -2.967164 0.879579 -3.316625 0 -3.316625 
C -0.879579 -3.316625 -1.723251 -2.967164 -2.345208 -2.345208 
C -2.967164 -1.723251 -3.316625 -0.879579 -3.316625 0 
C -3.316625 0.879579 -2.967164 1.723251 -2.345208 2.345208 
C -1.723251 2.967164 -0.879579 3.316625 0 3.316625 
z
" style="stroke: #ffffff; stroke-opacity: 0.9; stroke-width: 0.4"/>
    </defs>
    <g clip-path="url(#p989191c69b)">
     <use xlink:href="#m4bf9f7826b" x="376.826972" y="328.621546" style="fill: #7d5a7d; fill-opacity: 0.9; stroke: #ffffff; stroke-opacity: 0.9; stroke-width: 0.4"/>
     <use xlink:href="#m4bf9f7826b" x="408.401415" y="304.719825" style="fill: #7d5a7d; fill-opacity: 0.9; stroke: #ffffff; stroke-opacity: 0.9; stroke-width: 0.4"/>
     <use xlink:href="#m4bf9f7826b" x="408.401415" y="314.851956" style="fill: #7d5a7d; fill-opacity: 0.9; stroke: #ffffff; stroke-opacity: 0.9; stroke-width: 0.4"/>
     <use xlink:href="#m4bf9f7826b" x="408.401415" y="237.698966" style="fill: #7d5a7d; fill-opacity: 0.9; stroke: #ffffff; stroke-opacity: 0.9; stroke-width: 0.4"/>
     <use xlink:href="#m4bf9f7826b" x="408.401415" y="282.313491" style="fill: #7d5a7d; fill-opacity: 0.9; stroke: #ffffff; stroke-opacity: 0.9; stroke-width: 0.4"/>
     <use xlink:href="#m4bf9f7826b" x="408.401415" y="249.26848" style="fill: #7d5a7d; fill-opacity: 0.9; stroke: #ffffff; stroke-opacity: 0.9; stroke-width: 0.4"/>
    </g>
   </g>
   <g id="PathCollection_5">
    <defs>
     <path id="m7e9b118d82" d="M 0 3.316625 
C 0.879579 3.316625 1.723251 2.967164 2.345208 2.345208 
C 2.967164 1.723251 3.316625 0.879579 3.316625 0 
C 3.316625 -0.879579 2.967164 -1.723251 2.345208 -2.345208 
C 1.723251 -2.967164 0.879579 -3.316625 0 -3.316625 
C -0.879579 -3.316625 -1.723251 -2.967164 -2.345208 -2.345208 
C -2.967164 -1.723251 -3.316625 -0.879579 -3.316625 0 
C -3.316625 0.879579 -2.967164 1.723251 -2.345208 2.345208 
C -1.723251 2.967164 -0.879579 3.316625 0 3.316625 
z
" style="stroke: #ffffff; stroke-opacity: 0.9; stroke-width: 0.4"/>
    </defs>
    <g clip-path="url(#p989191c69b)">
     <use xlink:href="#m7e9b118d82" x="597.848073" y="191.468893" style="fill: #4e8a8b; fill-opacity: 0.9; stroke: #ffffff; stroke-opacity: 0.9; stroke-width: 0.4"/>
     <use xlink:href="#m7e9b118d82" x="597.848073" y="184.185383" style="fill: #4e8a8b; fill-opacity: 0.9; stroke: #ffffff; stroke-opacity: 0.9; stroke-width: 0.4"/>
     <use xlink:href="#m7e9b118d82" x="597.848073" y="193.402859" style="fill: #4e8a8b; fill-opacity: 0.9; stroke: #ffffff; stroke-opacity: 0.9; stroke-width: 0.4"/>
     <use xlink:href="#m7e9b118d82" x="597.848073" y="178.464594" style="fill: #4e8a8b; fill-opacity: 0.9; stroke: #ffffff; stroke-opacity: 0.9; stroke-width: 0.4"/>
     <use xlink:href="#m7e9b118d82" x="597.848073" y="148.054024" style="fill: #4e8a8b; fill-opacity: 0.9; stroke: #ffffff; stroke-opacity: 0.9; stroke-width: 0.4"/>
     <use xlink:href="#m7e9b118d82" x="597.848073" y="166.285033" style="fill: #4e8a8b; fill-opacity: 0.9; stroke: #ffffff; stroke-opacity: 0.9; stroke-width: 0.4"/>
    </g>
   </g>
   <g id="PathCollection_6">
    <defs>
     <path id="m68b51259b8" d="M 0 3.316625 
C 0.879579 3.316625 1.723251 2.967164 2.345208 2.345208 
C 2.967164 1.723251 3.316625 0.879579 3.316625 0 
C 3.316625 -0.879579 2.967164 -1.723251 2.345208 -2.345208 
C 1.723251 -2.967164 0.879579 -3.316625 0 -3.316625 
C -0.879579 -3.316625 -1.723251 -2.967164 -2.345208 -2.345208 
C -2.967164 -1.723251 -3.316625 -0.879579 -3.316625 0 
C -3.316625 0.879579 -2.967164 1.723251 -2.345208 2.345208 
C -1.723251 2.967164 -0.879579 3.316625 0 3.316625 
z
" style="stroke: #ffffff; stroke-opacity: 0.9; stroke-width: 0.4"/>
    </defs>
    <g clip-path="url(#p989191c69b)">
     <use xlink:href="#m68b51259b8" x="268.070557" y="367.211898" style="fill: #a46b6b; fill-opacity: 0.9; stroke: #ffffff; stroke-opacity: 0.9; stroke-width: 0.4"/>
     <use xlink:href="#m68b51259b8" x="268.070557" y="366.566268" style="fill: #a46b6b; fill-opacity: 0.9; stroke: #ffffff; stroke-opacity: 0.9; stroke-width: 0.4"/>
     <use xlink:href="#m68b51259b8" x="268.070557" y="347.000055" style="fill: #a46b6b; fill-opacity: 0.9; stroke: #ffffff; stroke-opacity: 0.9; stroke-width: 0.4"/>
     <use xlink:href="#m68b51259b8" x="327.711171" y="409.666909" style="fill: #a46b6b; fill-opacity: 0.9; stroke: #ffffff; stroke-opacity: 0.9; stroke-width: 0.4"/>
    </g>
   </g>
   <g id="PathCollection_7">
    <defs>
     <path id="m14a6f8964f" d="M 0 3.316625 
C 0.879579 3.316625 1.723251 2.967164 2.345208 2.345208 
C 2.967164 1.723251 3.316625 0.879579 3.316625 0 
C 3.316625 -0.879579 2.967164 -1.723251 2.345208 -2.345208 
C 1.723251 -2.967164 0.879579 -3.316625 0 -3.316625 
C -0.879579 -3.316625 -1.723251 -2.967164 -2.345208 -2.345208 
C -2.967164 -1.723251 -3.316625 -0.879579 -3.316625 0 
C -3.316625 0.879579 -2.967164 1.723251 -2.345208 2.345208 
C -1.723251 2.967164 -0.879579 3.316625 0 3.316625 
z
" style="stroke: #ffffff; stroke-opacity: 0.9; stroke-width: 0.4"/>
    </defs>
    <g clip-path="url(#p989191c69b)">
     <use xlink:href="#m14a6f8964f" x="541.71573" y="153.302764" style="fill: #4a6fa5; fill-opacity: 0.9; stroke: #ffffff; stroke-opacity: 0.9; stroke-width: 0.4"/>
     <use xlink:href="#m14a6f8964f" x="541.71573" y="147.325091" style="fill: #4a6fa5; fill-opacity: 0.9; stroke: #ffffff; stroke-opacity: 0.9; stroke-width: 0.4"/>
     <use xlink:href="#m14a6f8964f" x="541.71573" y="185.563111" style="fill: #4a6fa5; fill-opacity: 0.9; stroke: #ffffff; stroke-opacity: 0.9; stroke-width: 0.4"/>
    </g>
   </g>
   <g id="PathCollection_8">
    <defs>
     <path id="m1b15c6586c" d="M 0 3.316625 
C 0.879579 3.316625 1.723251 2.967164 2.345208 2.345208 
C 2.967164 1.723251 3.316625 0.879579 3.316625 0 
C 3.316625 -0.879579 2.967164 -1.723251 2.345208 -2.345208 
C 1.723251 -2.967164 0.879579 -3.316625 0 -3.316625 
C -0.879579 -3.316625 -1.723251 -2.967164 -2.345208 -2.345208 
C -2.967164 -1.723251 -3.316625 -0.879579 -3.316625 0 
C -3.316625 0.879579 -2.967164 1.723251 -2.345208 2.345208 
C -1.723251 2.967164 -0.879579 3.316625 0 3.316625 
z
" style="stroke: #ffffff; stroke-opacity: 0.9; stroke-width: 0.4"/>
    </defs>
    <g clip-path="url(#p989191c69b)">
     <use xlink:href="#m1b15c6586c" x="225.971299" y="403.738862" style="fill: #c9ced8; fill-opacity: 0.9; stroke: #ffffff; stroke-opacity: 0.9; stroke-width: 0.4"/>
     <use xlink:href="#m1b15c6586c" x="225.971299" y="154.414242" style="fill: #c9ced8; fill-opacity: 0.9; stroke: #ffffff; stroke-opacity: 0.9; stroke-width: 0.4"/>
     <use xlink:href="#m1b15c6586c" x="289.120185" y="210.022202" style="fill: #c9ced8; fill-opacity: 0.9; stroke: #ffffff; stroke-opacity: 0.9; stroke-width: 0.4"/>
     <use xlink:href="#m1b15c6586c" x="478.566844" y="290.602834" style="fill: #c9ced8; fill-opacity: 0.9; stroke: #ffffff; stroke-opacity: 0.9; stroke-width: 0.4"/>
    </g>
   </g>
   <g id="legend_1">
    <g id="text_11">
     <text style="font-size: 9.2px; font-family: 'DejaVu Sans', 'Arial', 'Helvetica', sans-serif; text-anchor: start; fill: #1a1a1a" x="662.276867" y="144.718562" transform="rotate(-0 662.276867 144.718562)">Training hardware</text>
    </g>
    <g id="PathCollection_9">
     <g>
      <use xlink:href="#m1b44a0f11c" x="639.33668" y="156.145344" style="fill: #1f3864; fill-opacity: 0.9; stroke: #ffffff; stroke-opacity: 0.9; stroke-width: 0.4"/>
     </g>
    </g>
    <g id="text_12">
     <text style="font-size: 8.8px; font-family: 'DejaVu Sans', 'Arial', 'Helvetica', sans-serif; text-anchor: start; fill: #1a1a1a" x="651.21668" y="158.455344" transform="rotate(-0 651.21668 158.455344)">Google TPU v3  (11)</text>
    </g>
    <g id="PathCollection_10">
     <g>
      <use xlink:href="#m704212e90d" x="639.33668" y="169.786031" style="fill: #b4763a; fill-opacity: 0.9; stroke: #ffffff; stroke-opacity: 0.9; stroke-width: 0.4"/>
     </g>
    </g>
    <g id="text_13">
     <text style="font-size: 8.8px; font-family: 'DejaVu Sans', 'Arial', 'Helvetica', sans-serif; text-anchor: start; fill: #1a1a1a" x="651.21668" y="172.096031" transform="rotate(-0 651.21668 172.096031)">NVIDIA consumer /…  (7)</text>
    </g>
    <g id="PathCollection_11">
     <g>
      <use xlink:href="#mb3bcdc222d" x="639.33668" y="183.426719" style="fill: #6b8f71; fill-opacity: 0.9; stroke: #ffffff; stroke-opacity: 0.9; stroke-width: 0.4"/>
     </g>
    </g>
    <g id="text_14">
     <text style="font-size: 8.8px; font-family: 'DejaVu Sans', 'Arial', 'Helvetica', sans-serif; text-anchor: start; fill: #1a1a1a" x="651.21668" y="185.736719" transform="rotate(-0 651.21668 185.736719)">NVIDIA A100 / A800  (7)</text>
    </g>
    <g id="PathCollection_12">
     <g>
      <use xlink:href="#m4bf9f7826b" x="639.33668" y="197.067406" style="fill: #7d5a7d; fill-opacity: 0.9; stroke: #ffffff; stroke-opacity: 0.9; stroke-width: 0.4"/>
     </g>
    </g>
    <g id="text_15">
     <text style="font-size: 8.8px; font-family: 'DejaVu Sans', 'Arial', 'Helvetica', sans-serif; text-anchor: start; fill: #1a1a1a" x="651.21668" y="199.377406" transform="rotate(-0 651.21668 199.377406)">NVIDIA V100  (6)</text>
    </g>
    <g id="PathCollection_13">
     <g>
      <use xlink:href="#m7e9b118d82" x="639.33668" y="210.708094" style="fill: #4e8a8b; fill-opacity: 0.9; stroke: #ffffff; stroke-opacity: 0.9; stroke-width: 0.4"/>
     </g>
    </g>
    <g id="text_16">
     <text style="font-size: 8.8px; font-family: 'DejaVu Sans', 'Arial', 'Helvetica', sans-serif; text-anchor: start; fill: #1a1a1a" x="651.21668" y="213.018094" transform="rotate(-0 651.21668 213.018094)">NVIDIA H100 / H800 /…  (6)</text>
    </g>
    <g id="PathCollection_14">
     <g>
      <use xlink:href="#m68b51259b8" x="639.33668" y="224.348781" style="fill: #a46b6b; fill-opacity: 0.9; stroke: #ffffff; stroke-opacity: 0.9; stroke-width: 0.4"/>
     </g>
    </g>
    <g id="text_17">
     <text style="font-size: 8.8px; font-family: 'DejaVu Sans', 'Arial', 'Helvetica', sans-serif; text-anchor: start; fill: #1a1a1a" x="651.21668" y="226.658781" transform="rotate(-0 651.21668 226.658781)">NVIDIA datacenter…  (4)</text>
    </g>
    <g id="PathCollection_15">
     <g>
      <use xlink:href="#m14a6f8964f" x="639.33668" y="237.989469" style="fill: #4a6fa5; fill-opacity: 0.9; stroke: #ffffff; stroke-opacity: 0.9; stroke-width: 0.4"/>
     </g>
    </g>
    <g id="text_18">
     <text style="font-size: 8.8px; font-family: 'DejaVu Sans', 'Arial', 'Helvetica', sans-serif; text-anchor: start; fill: #1a1a1a" x="651.21668" y="240.299469" transform="rotate(-0 651.21668 240.299469)">Google TPU v4  (3)</text>
    </g>
    <g id="PathCollection_16">
     <g>
      <use xlink:href="#m1b15c6586c" x="639.33668" y="251.630156" style="fill: #c9ced8; fill-opacity: 0.9; stroke: #ffffff; stroke-opacity: 0.9; stroke-width: 0.4"/>
     </g>
    </g>
    <g id="text_19">
     <text style="font-size: 8.8px; font-family: 'DejaVu Sans', 'Arial', 'Helvetica', sans-serif; text-anchor: start; fill: #1a1a1a" x="651.21668" y="253.940156" transform="rotate(-0 651.21668 253.940156)">Other hardware  (4)</text>
    </g>
   </g>
  </g>
  <g id="line2d_17">
   <path d="M 29.736 456.192 
L 819.864 456.192 
" style="fill: none; stroke: #d7dbe2; stroke-width: 0.8; stroke-linecap: square"/>
  </g>
  <g id="text_20">
   <text style="font-weight: 700; font-size: 10.5px; font-family: 'DejaVu Sans Mono', 'Bitstream Vera Sans Mono', 'Computer Modern Typewriter', 'Andale Mono', 'Nimbus Mono L', 'Courier New', 'Courier', 'Fixed', 'Terminal', monospace; text-anchor: start; fill: #1f3864" x="29.736" y="24.105539" transform="rotate(-0 29.736 24.105539)">MODELS-D09</text>
  </g>
  <g id="text_21">
   <text style="font-weight: 700; font-size: 15.5px; font-family: 'DejaVu Sans', 'Arial', 'Helvetica', sans-serif; text-anchor: start; fill: #1a1a1a" x="29.736" y="53.249578" transform="rotate(-0 29.736 53.249578)">Compute per dollar rises with each chip generation, unevenly</text>
  </g>
  <g id="text_22">
   <text style="font-size: 10.2px; font-family: 'DejaVu Sans', 'Arial', 'Helvetica', sans-serif; text-anchor: start; fill: #6b7280" x="29.736" y="75.718406" transform="rotate(-0 29.736 75.718406)">What it shows: compute bought per dollar of hardware, plotted against the release date of the chip each frontier model</text>
  </g>
  <g id="text_23">
   <text style="font-size: 10.2px; font-family: 'DejaVu Sans', 'Arial', 'Helvetica', sans-serif; text-anchor: start; fill: #6b7280" x="29.736" y="92.998406" transform="rotate(-0 29.736 92.998406)">trained on. This is the falling-cost side of the compute story, and it is the only price series in the dataset that is not</text>
  </g>
  <g id="text_24">
   <text style="font-size: 10.2px; font-family: 'DejaVu Sans', 'Arial', 'Helvetica', sans-serif; text-anchor: start; fill: #6b7280" x="29.736" y="110.278406" transform="rotate(-0 29.736 110.278406)">modelled from power.</text>
  </g>
  <g id="text_25">
   <text style="font-size: 8.6px; font-family: 'DejaVu Sans', 'Arial', 'Helvetica', sans-serif; text-anchor: start; fill: #6b7280" x="29.736" y="475.398656" transform="rotate(-0 29.736 475.398656)">Source: Epoch AI, Data on AI Models (CC-BY) — frontier_ai_models.csv — epoch.ai/data/ai-models</text>
  </g>
  <g id="text_26">
   <text style="font-size: 8.6px; font-family: 'DejaVu Sans', 'Arial', 'Helvetica', sans-serif; text-anchor: start; fill: #6b7280" x="29.736" y="490.374656" transform="rotate(-0 29.736 490.374656)">Methodology: Methodology reference pending final methodology document; derivation follows Epoch AI's published AI models documentation</text>
  </g>
  <g id="text_27">
   <text style="font-style: italic; font-size: 8.4px; font-family: 'DejaVu Sans', 'Arial', 'Helvetica', sans-serif; text-anchor: start; fill: #6b7280" x="29.736" y="505.198688" transform="rotate(-0 29.736 505.198688)">Note: 48 of 137 frontier models record both a FLOP-per-dollar figure and a hardware release date; the rest are absent. The figure is</text>
  </g>
  <g id="text_28">
   <text style="font-style: italic; font-size: 8.4px; font-family: 'DejaVu Sans', 'Arial', 'Helvetica', sans-serif; text-anchor: start; fill: #6b7280" x="29.736" y="519.022687" transform="rotate(-0 29.736 519.022687)">      Epoch's own, computed from the chip's peak throughput and its list price, so it is a specification ratio rather than realised</text>
  </g>
  <g id="text_29">
   <text style="font-style: italic; font-size: 8.4px; font-family: 'DejaVu Sans', 'Arial', 'Helvetica', sans-serif; text-anchor: start; fill: #6b7280" x="29.736" y="532.846688" transform="rotate(-0 29.736 532.846688)">      performance — real utilisation is typically 30-50% of peak. Several models train on the same chip and therefore sit at the same</text>
  </g>
  <g id="text_30">
   <text style="font-style: italic; font-size: 8.4px; font-family: 'DejaVu Sans', 'Arial', 'Helvetica', sans-serif; text-anchor: start; fill: #6b7280" x="29.736" y="546.670687" transform="rotate(-0 29.736 546.670687)">      point.</text>
  </g>
 </g>
 <defs>
  <clipPath id="p989191c69b">
   <rect x="74.7648" y="134.208" width="547.992" height="288.576"/>
  </clipPath>
 </defs>
</svg>
